  0
SECTION
  2
HEADER
  9
$ACADVER
  1
AC1024
  9
$ACADMAINTVER
 70
     6
  9
$DWGCODEPAGE
  3
ANSI_1252
  9
$INSBASE
 10
0.0
 20
0.0
 30
0.0
  9
$EXTMIN
 10
1.000000000000000E+20
 20
1.000000000000000E+20
 30
1.000000000000000E+20
  9
$EXTMAX
 10
-1.000000000000000E+20
 20
-1.000000000000000E+20
 30
-1.000000000000000E+20
  9
$LIMMIN
 10
0.0
 20
0.0
  9
$LIMMAX
 10
12.0
 20
9.0
  9
$ORTHOMODE
 70
     0
  9
$REGENMODE
 70
     1
  9
$FILLMODE
 70
     1
  9
$QTEXTMODE
 70
     0
  9
$MIRRTEXT
 70
     1
  9
$LTSCALE
 40
1.0
  9
$ATTMODE
 70
     1
  9
$TEXTSIZE
 40
0.2
  9
$TRACEWID
 40
0.05
  9
$TEXTSTYLE
  7
Standard
  9
$CLAYER
  8
0
  9
$CELTYPE
  6
ByLayer
  9
$CECOLOR
 62
   256
  9
$CELTSCALE
 40
1.0
  9
$DISPSILH
 70
     0
  9
$DIMSCALE
 40
1.0
  9
$DIMASZ
 40
0.18
  9
$DIMEXO
 40
0.0625
  9
$DIMDLI
 40
0.38
  9
$DIMRND
 40
0.0
  9
$DIMDLE
 40
0.0
  9
$DIMEXE
 40
0.18
  9
$DIMTP
 40
0.0
  9
$DIMTM
 40
0.0
  9
$DIMTXT
 40
0.18
  9
$DIMCEN
 40
0.09
  9
$DIMTSZ
 40
0.0
  9
$DIMTOL
 70
     0
  9
$DIMLIM
 70
     0
  9
$DIMTIH
 70
     1
  9
$DIMTOH
 70
     1
  9
$DIMSE1
 70
     0
  9
$DIMSE2
 70
     0
  9
$DIMTAD
 70
     0
  9
$DIMZIN
 70
     0
  9
$DIMBLK
  1

  9
$DIMASO
 70
     1
  9
$DIMSHO
 70
     1
  9
$DIMPOST
  1

  9
$DIMAPOST
  1

  9
$DIMALT
 70
     0
  9
$DIMALTD
 70
     2
  9
$DIMALTF
 40
25.4
  9
$DIMLFAC
 40
1.0
  9
$DIMTOFL
 70
     0
  9
$DIMTVP
 40
0.0
  9
$DIMTIX
 70
     0
  9
$DIMSOXD
 70
     0
  9
$DIMSAH
 70
     0
  9
$DIMBLK1
  1

  9
$DIMBLK2
  1

  9
$DIMSTYLE
  2
Standard
  9
$DIMCLRD
 70
     0
  9
$DIMCLRE
 70
     0
  9
$DIMCLRT
 70
     0
  9
$DIMTFAC
 40
1.0
  9
$DIMGAP
 40
0.09
  9
$DIMJUST
 70
     0
  9
$DIMSD1
 70
     0
  9
$DIMSD2
 70
     0
  9
$DIMTOLJ
 70
     1
  9
$DIMTZIN
 70
     0
  9
$DIMALTZ
 70
     0
  9
$DIMALTTZ
 70
     0
  9
$DIMUPT
 70
     0
  9
$DIMDEC
 70
     4
  9
$DIMTDEC
 70
     4
  9
$DIMALTU
 70
     2
  9
$DIMALTTD
 70
     2
  9
$DIMTXSTY
  7
Standard
  9
$DIMAUNIT
 70
     0
  9
$DIMADEC
 70
     0
  9
$DIMALTRND
 40
0.0
  9
$DIMAZIN
 70
     0
  9
$DIMDSEP
 70
    46
  9
$DIMATFIT
 70
     3
  9
$DIMFRAC
 70
     0
  9
$DIMLDRBLK
  1

  9
$DIMLUNIT
 70
     2
  9
$DIMLWD
 70
    -2
  9
$DIMLWE
 70
    -2
  9
$DIMTMOVE
 70
     0
  9
$DIMFXL
 40
1.0
  9
$DIMFXLON
 70
     0
  9
$DIMJOGANG
 40
0.7853981633974483
  9
$DIMTFILL
 70
     0
  9
$DIMTFILLCLR
 70
     0
  9
$DIMARCSYM
 70
     0
  9
$DIMLTYPE
  6

  9
$DIMLTEX1
  6

  9
$DIMLTEX2
  6

  9
$DIMTXTDIRECTION
 70
     0
  9
$LUNITS
 70
     2
  9
$LUPREC
 70
     4
  9
$SKETCHINC
 40
0.1
  9
$FILLETRAD
 40
0.5
  9
$AUNITS
 70
     0
  9
$AUPREC
 70
     0
  9
$MENU
  1
.
  9
$ELEVATION
 40
0.0
  9
$PELEVATION
 40
0.0
  9
$THICKNESS
 40
0.0
  9
$LIMCHECK
 70
     0
  9
$CHAMFERA
 40
0.5
  9
$CHAMFERB
 40
0.5
  9
$CHAMFERC
 40
1.0
  9
$CHAMFERD
 40
0.0
  9
$SKPOLY
 70
     0
  9
$TDCREATE
 40
2458953.862809746
  9
$TDUCREATE
 40
2458954.154476412
  9
$TDUPDATE
 40
2458953.86280978
  9
$TDUUPDATE
 40
2458954.154476447
  9
$TDINDWG
 40
0.0000000116
  9
$TDUSRTIMER
 40
0.0000000116
  9
$USRTIMER
 70
     1
  9
$ANGBASE
 50
0.0
  9
$ANGDIR
 70
     0
  9
$PDMODE
 70
     0
  9
$PDSIZE
 40
0.0
  9
$PLINEWID
 40
0.0
  9
$SPLFRAME
 70
     0
  9
$SPLINETYPE
 70
     6
  9
$SPLINESEGS
 70
     8
  9
$HANDSEED
  5
49
  9
$SURFTAB1
 70
     6
  9
$SURFTAB2
 70
     6
  9
$SURFTYPE
 70
     6
  9
$SURFU
 70
     6
  9
$SURFV
 70
     6
  9
$UCSBASE
  2

  9
$UCSNAME
  2

  9
$UCSORG
 10
0.0
 20
0.0
 30
0.0
  9
$UCSXDIR
 10
1.0
 20
0.0
 30
0.0
  9
$UCSYDIR
 10
0.0
 20
1.0
 30
0.0
  9
$UCSORTHOREF
  2

  9
$UCSORTHOVIEW
 70
     0
  9
$UCSORGTOP
 10
0.0
 20
0.0
 30
0.0
  9
$UCSORGBOTTOM
 10
0.0
 20
0.0
 30
0.0
  9
$UCSORGLEFT
 10
0.0
 20
0.0
 30
0.0
  9
$UCSORGRIGHT
 10
0.0
 20
0.0
 30
0.0
  9
$UCSORGFRONT
 10
0.0
 20
0.0
 30
0.0
  9
$UCSORGBACK
 10
0.0
 20
0.0
 30
0.0
  9
$PUCSBASE
  2

  9
$PUCSNAME
  2

  9
$PUCSORG
 10
0.0
 20
0.0
 30
0.0
  9
$PUCSXDIR
 10
1.0
 20
0.0
 30
0.0
  9
$PUCSYDIR
 10
0.0
 20
1.0
 30
0.0
  9
$PUCSORTHOREF
  2

  9
$PUCSORTHOVIEW
 70
     0
  9
$PUCSORGTOP
 10
0.0
 20
0.0
 30
0.0
  9
$PUCSORGBOTTOM
 10
0.0
 20
0.0
 30
0.0
  9
$PUCSORGLEFT
 10
0.0
 20
0.0
 30
0.0
  9
$PUCSORGRIGHT
 10
0.0
 20
0.0
 30
0.0
  9
$PUCSORGFRONT
 10
0.0
 20
0.0
 30
0.0
  9
$PUCSORGBACK
 10
0.0
 20
0.0
 30
0.0
  9
$USERI1
 70
     0
  9
$USERI2
 70
     0
  9
$USERI3
 70
     0
  9
$USERI4
 70
     0
  9
$USERI5
 70
     0
  9
$USERR1
 40
0.0
  9
$USERR2
 40
0.0
  9
$USERR3
 40
0.0
  9
$USERR4
 40
0.0
  9
$USERR5
 40
0.0
  9
$WORLDVIEW
 70
     1
  9
$SHADEDGE
 70
     3
  9
$SHADEDIF
 70
    70
  9
$TILEMODE
 70
     1
  9
$MAXACTVP
 70
    64
  9
$PINSBASE
 10
0.0
 20
0.0
 30
0.0
  9
$PLIMCHECK
 70
     0
  9
$PEXTMIN
 10
1.000000000000000E+20
 20
1.000000000000000E+20
 30
1.000000000000000E+20
  9
$PEXTMAX
 10
-1.000000000000000E+20
 20
-1.000000000000000E+20
 30
-1.000000000000000E+20
  9
$PLIMMIN
 10
0.0
 20
0.0
  9
$PLIMMAX
 10
12.0
 20
9.0
  9
$UNITMODE
 70
     0
  9
$VISRETAIN
 70
     1
  9
$PLINEGEN
 70
     0
  9
$PSLTSCALE
 70
     1
  9
$TREEDEPTH
 70
  3020
  9
$CMLSTYLE
  2
Standard
  9
$CMLJUST
 70
     0
  9
$CMLSCALE
 40
1.0
  9
$PROXYGRAPHICS
 70
     1
  9
$MEASUREMENT
 70
     0
  9
$CELWEIGHT
370
    -1
  9
$ENDCAPS
280
     0
  9
$JOINSTYLE
280
     0
  9
$LWDISPLAY
290
     1
  9
$INSUNITS
 70
     1
  9
$HYPERLINKBASE
  1

  9
$STYLESHEET
  1

  9
$XEDIT
290
     1
  9
$CEPSNTYPE
380
     0
  9
$PSTYLEMODE
290
     1
  9
$FINGERPRINTGUID
  2
{61B1CA53-009B-44D3-B85B-11A4711ACD40}
  9
$VERSIONGUID
  2
{FAEB1C32-E019-11D5-929B-00C0DF256EC4}
  9
$EXTNAMES
290
     1
  9
$PSVPSCALE
 40
0.0
  9
$OLESTARTUP
290
     0
  9
$SORTENTS
280
   127
  9
$INDEXCTL
280
     0
  9
$HIDETEXT
280
     1
  9
$XCLIPFRAME
280
     2
  9
$HALOGAP
280
     0
  9
$OBSCOLOR
 70
   257
  9
$OBSLTYPE
280
     0
  9
$INTERSECTIONDISPLAY
280
     0
  9
$INTERSECTIONCOLOR
 70
   257
  9
$DIMASSOC
280
     2
  9
$PROJECTNAME
  1

  9
$CAMERADISPLAY
290
     0
  9
$LENSLENGTH
 40
50.0
  9
$CAMERAHEIGHT
 40
0.0
  9
$STEPSPERSEC
 40
2.0
  9
$STEPSIZE
 40
6.0
  9
$3DDWFPREC
 40
2.0
  9
$PSOLWIDTH
 40
0.25
  9
$PSOLHEIGHT
 40
4.0
  9
$LOFTANG1
 40
1.570796326794897
  9
$LOFTANG2
 40
1.570796326794897
  9
$LOFTMAG1
 40
0.0
  9
$LOFTMAG2
 40
0.0
  9
$LOFTPARAM
 70
     7
  9
$LOFTNORMALS
280
     1
  9
$LATITUDE
 40
37.795
  9
$LONGITUDE
 40
-122.394
  9
$NORTHDIRECTION
 40
0.0
  9
$TIMEZONE
 70
 -8000
  9
$LIGHTGLYPHDISPLAY
280
     1
  9
$TILEMODELIGHTSYNCH
280
     1
  9
$CMATERIAL
347
3C
  9
$SOLIDHIST
280
     1
  9
$SHOWHIST
280
     1
  9
$DWFFRAME
280
     2
  9
$DGNFRAME
280
     2
  9
$REALWORLDSCALE
290
     1
  9
$INTERFERECOLOR
 62
   256
  9
$CSHADOW
280
     0
  9
$SHADOWPLANELOCATION
 40
0.0
  0
ENDSEC
  0
SECTION
  2
CLASSES
  0
CLASS
  1
ACDBDICTIONARYWDFLT
  2
AcDbDictionaryWithDefault
  3
ObjectDBX Classes
 90
        0
 91
        4
280
     0
281
     0
  0
CLASS
  1
VISUALSTYLE
  2
AcDbVisualStyle
  3
ObjectDBX Classes
 90
     4095
 91
        4
280
     0
281
     0
  0
CLASS
  1
MATERIAL
  2
AcDbMaterial
  3
ObjectDBX Classes
 90
     1153
 91
        4
280
     0
281
     0
  0
CLASS
  1
SUN
  2
AcDbSun
  3
SCENEOE
 90
     1024
 91
        4
280
     0
281
     0
  0
ENDSEC
  0
SECTION
  2
TABLES
  0
TABLE
  2
VPORT
  5
8
330
0
100
AcDbSymbolTable
 70
     1
  0
VPORT
  5
29
330
8
100
AcDbSymbolTableRecord
100
AcDbViewportTableRecord
  2
*Active
 70
     0
 10
0.0
 20
0.0
 11
1.0
 21
1.0
 12
0.0
 22
0.0
 13
0.0
 23
0.0
 14
0.5
 24
0.5
 15
0.5
 25
0.5
 16
0.0
 26
0.0
 36
1.0
 17
960.0
 27
540.0
 37
0.0
 40
1080.0
 41
1.777777777777778
 42
50.0
 43
0.0
 44
0.0
 50
0.0
 51
0.0
 71
     0
 72
   100
 73
     1
 74
     3
 75
     0
 76
     0
 77
     0
 78
     0
281
     0
 65
     1
110
0.0
120
0.0
130
0.0
111
1.0
121
0.0
131
0.0
112
0.0
122
1.0
132
0.0
 79
     0
146
0.0
 60
     3
 61
     5
292
     1
282
     1
141
0.0
142
0.0
 63
   250
361
3F
  0
ENDTAB
  0
TABLE
  2
LTYPE
  5
5
330
0
100
AcDbSymbolTable
 70
     1
  0
LTYPE
  5
14
330
5
100
AcDbSymbolTableRecord
100
AcDbLinetypeTableRecord
  2
ByBlock
 70
     0
  3

 72
    65
 73
     0
 40
0.0
  0
LTYPE
  5
15
330
5
100
AcDbSymbolTableRecord
100
AcDbLinetypeTableRecord
  2
ByLayer
 70
     0
  3

 72
    65
 73
     0
 40
0.0
  0
LTYPE
  5
16
330
5
100
AcDbSymbolTableRecord
100
AcDbLinetypeTableRecord
  2
Continuous
 70
     0
  3
Solid line
 72
    65
 73
     0
 40
0.0
  0
ENDTAB
  0
TABLE
  2
LAYER
  5
2
330
0
100
AcDbSymbolTable
 70
     2
  0
LAYER
  5
10
330
2
100
AcDbSymbolTableRecord
100
AcDbLayerTableRecord
  2
0
 70
     0
 62
     7
  6
Continuous
370
    -3
390
F
347
3E
  0
LAYER
  5
40
330
2
100
AcDbSymbolTableRecord
100
AcDbLayerTableRecord
  2
Layer 1
 70
     0
 62
     7
  6
Continuous
370
    -3
390
F
347
3E
  0
ENDTAB
  0
TABLE
  2
STYLE
  5
3
330
0
100
AcDbSymbolTable
 70
     1
  0
STYLE
  5
11
330
3
100
AcDbSymbolTableRecord
100
AcDbTextStyleTableRecord
  2
Standard
 70
     0
 40
0.0
 41
1.0
 50
0.0
 71
     0
 42
0.2
  3
txt
  4

  0
ENDTAB
  0
TABLE
  2
VIEW
  5
6
330
0
100
AcDbSymbolTable
 70
     0
  0
ENDTAB
  0
TABLE
  2
UCS
  5
7
330
0
100
AcDbSymbolTable
 70
     0
  0
ENDTAB
  0
TABLE
  2
APPID
  5
9
330
0
100
AcDbSymbolTable
 70
     1
  0
APPID
  5
12
330
9
100
AcDbSymbolTableRecord
100
AcDbRegAppTableRecord
  2
ACAD
 70
     0
  0
ENDTAB
  0
TABLE
  2
DIMSTYLE
  5
A
330
0
100
AcDbSymbolTable
 70
     1
100
AcDbDimStyleTable
  0
DIMSTYLE
105
27
330
A
100
AcDbSymbolTableRecord
100
AcDbDimStyleTableRecord
  2
Standard
 70
     0
178
     0
340
11
  0
ENDTAB
  0
TABLE
  2
BLOCK_RECORD
  5
1
330
0
100
AcDbSymbolTable
 70
     2
  0
BLOCK_RECORD
  5
1F
330
1
100
AcDbSymbolTableRecord
100
AcDbBlockTableRecord
  2
*Model_Space
340
22
 70
     0
280
     1
281
     0
  0
BLOCK_RECORD
  5
1B
330
1
100
AcDbSymbolTableRecord
100
AcDbBlockTableRecord
  2
*Paper_Space
340
1E
 70
     0
280
     1
281
     0
  0
BLOCK_RECORD
  5
23
330
1
100
AcDbSymbolTableRecord
100
AcDbBlockTableRecord
  2
*Paper_Space0
340
26
 70
     0
280
     1
281
     0
  0
BLOCK_RECORD
  5
41
330
1
100
AcDbSymbolTableRecord
100
AcDbBlockTableRecord
  2
block 2
340
0
102
{BLKREFS
331
42
102
}
 70
     0
280
     1
281
     0
  0
ENDTAB
  0
ENDSEC
  0
SECTION
  2
BLOCKS
  0
BLOCK
  5
20
330
1F
100
AcDbEntity
  8
0
100
AcDbBlockBegin
  2
*Model_Space
 70
     0
 10
0.0
 20
0.0
 30
0.0
  3
*Model_Space
  1

  0
ENDBLK
  5
21
330
1F
100
AcDbEntity
  8
0
100
AcDbBlockEnd
  0
BLOCK
  5
1C
330
1B
100
AcDbEntity
 67
     1
  8
0
100
AcDbBlockBegin
  2
*Paper_Space
 70
     0
 10
0.0
 20
0.0
 30
0.0
  3
*Paper_Space
  1

  0
ENDBLK
  5
1D
330
1B
100
AcDbEntity
 67
     1
  8
0
100
AcDbBlockEnd
  0
BLOCK
  5
24
330
23
100
AcDbEntity
  8
0
100
AcDbBlockBegin
  2
*Paper_Space0
 70
     0
 10
0.0
 20
0.0
 30
0.0
  3
*Paper_Space0
  1

  0
ENDBLK
  5
25
330
23
100
AcDbEntity
  8
0
100
AcDbBlockEnd
  0
BLOCK
  5
43
330
41
100
AcDbEntity
  8
0
100
AcDbBlockBegin
  2
block 2
 70
     0
 10
0.0
 20
0.0
 30
0.0
  3
block 2
  1

  0
SPLINE
  5
45
330
41
100
AcDbEntity
  8
Layer 1
 62
     7
420
 16777215
370
    35
100
AcDbSpline
210
0.0
220
0.0
230
1.0
 70
    11
 71
     3
 72
   272
 73
   268
 74
     0
 42
0.0000000001
 43
0.0000000001
 12
1.0
 22
0.0
 32
0.0
 13
1.0
 23
0.0
 33
0.0
 40
0.0
 40
0.0
 40
0.0
 40
0.0
 40
1.0
 40
1.0
 40
1.0
 40
2.0
 40
2.0
 40
2.0
 40
3.0
 40
3.0
 40
3.0
 40
4.0
 40
4.0
 40
4.0
 40
5.0
 40
5.0
 40
5.0
 40
6.0
 40
6.0
 40
6.0
 40
7.0
 40
7.0
 40
7.0
 40
8.0
 40
8.0
 40
8.0
 40
9.0
 40
9.0
 40
9.0
 40
10.0
 40
10.0
 40
10.0
 40
11.0
 40
11.0
 40
11.0
 40
12.0
 40
12.0
 40
12.0
 40
13.0
 40
13.0
 40
13.0
 40
14.0
 40
14.0
 40
14.0
 40
15.0
 40
15.0
 40
15.0
 40
16.0
 40
16.0
 40
16.0
 40
17.0
 40
17.0
 40
17.0
 40
18.0
 40
18.0
 40
18.0
 40
19.0
 40
19.0
 40
19.0
 40
20.0
 40
20.0
 40
20.0
 40
21.0
 40
21.0
 40
21.0
 40
22.0
 40
22.0
 40
22.0
 40
23.0
 40
23.0
 40
23.0
 40
24.0
 40
24.0
 40
24.0
 40
25.0
 40
25.0
 40
25.0
 40
26.0
 40
26.0
 40
26.0
 40
27.0
 40
27.0
 40
27.0
 40
28.0
 40
28.0
 40
28.0
 40
29.0
 40
29.0
 40
29.0
 40
30.0
 40
30.0
 40
30.0
 40
31.0
 40
31.0
 40
31.0
 40
32.0
 40
32.0
 40
32.0
 40
33.0
 40
33.0
 40
33.0
 40
34.0
 40
34.0
 40
34.0
 40
35.0
 40
35.0
 40
35.0
 40
36.0
 40
36.0
 40
36.0
 40
37.0
 40
37.0
 40
37.0
 40
38.0
 40
38.0
 40
38.0
 40
39.0
 40
39.0
 40
39.0
 40
40.0
 40
40.0
 40
40.0
 40
41.0
 40
41.0
 40
41.0
 40
42.0
 40
42.0
 40
42.0
 40
43.0
 40
43.0
 40
43.0
 40
44.0
 40
44.0
 40
44.0
 40
45.0
 40
45.0
 40
45.0
 40
46.0
 40
46.0
 40
46.0
 40
47.0
 40
47.0
 40
47.0
 40
48.0
 40
48.0
 40
48.0
 40
49.0
 40
49.0
 40
49.0
 40
50.0
 40
50.0
 40
50.0
 40
51.0
 40
51.0
 40
51.0
 40
52.0
 40
52.0
 40
52.0
 40
53.0
 40
53.0
 40
53.0
 40
54.0
 40
54.0
 40
54.0
 40
55.0
 40
55.0
 40
55.0
 40
56.0
 40
56.0
 40
56.0
 40
57.0
 40
57.0
 40
57.0
 40
58.0
 40
58.0
 40
58.0
 40
59.0
 40
59.0
 40
59.0
 40
60.0
 40
60.0
 40
60.0
 40
61.0
 40
61.0
 40
61.0
 40
62.0
 40
62.0
 40
62.0
 40
63.0
 40
63.0
 40
63.0
 40
64.0
 40
64.0
 40
64.0
 40
65.0
 40
65.0
 40
65.0
 40
66.0
 40
66.0
 40
66.0
 40
67.0
 40
67.0
 40
67.0
 40
68.0
 40
68.0
 40
68.0
 40
69.0
 40
69.0
 40
69.0
 40
70.0
 40
70.0
 40
70.0
 40
71.0
 40
71.0
 40
71.0
 40
72.0
 40
72.0
 40
72.0
 40
73.0
 40
73.0
 40
73.0
 40
74.0
 40
74.0
 40
74.0
 40
75.0
 40
75.0
 40
75.0
 40
76.0
 40
76.0
 40
76.0
 40
77.0
 40
77.0
 40
77.0
 40
78.0
 40
78.0
 40
78.0
 40
79.0
 40
79.0
 40
79.0
 40
80.0
 40
80.0
 40
80.0
 40
81.0
 40
81.0
 40
81.0
 40
82.0
 40
82.0
 40
82.0
 40
83.0
 40
83.0
 40
83.0
 40
84.0
 40
84.0
 40
84.0
 40
85.0
 40
85.0
 40
85.0
 40
86.0
 40
86.0
 40
86.0
 40
87.0
 40
87.0
 40
87.0
 40
88.0
 40
88.0
 40
88.0
 40
89.0
 40
89.0
 40
89.0
 40
89.0
 10
917.901773417887
 20
556.2741572192763
 30
0.0
 10
912.3289210469475
 20
556.5629944936782
 30
0.0
 10
908.55474103494
 20
556.6113120890886
 30
0.0
 10
904.8120248573032
 20
556.9794933870353
 30
0.0
 10
892.2547734644941
 20
558.2146901344195
 30
0.0
 10
879.7202768937059
 20
559.697335236825
 30
0.0
 10
867.1510434563097
 20
560.7842064283641
 30
0.0
 10
863.6147571929714
 20
561.0899838578234
 30
0.0
 10
859.989290337985
 20
560.1665012248659
 30
0.0
 10
856.4044502817433
 20
560.1637389112939
 30
0.0
 10
852.7929224241852
 20
560.1609613363207
 30
0.0
 10
849.081584249654
 20
561.2011173795499
 30
0.0
 10
845.6066291935294
 20
560.6239922411796
 30
0.0
 10
843.5205308166032
 20
560.2775126553852
 30
0.0
 10
840.7484613407178
 20
558.0337204419402
 30
0.0
 10
840.1473354008467
 20
556.0717452584604
 30
0.0
 10
839.0193390094582
 20
552.390115415802
 30
0.0
 10
839.048954610591
 20
548.299495289054
 30
0.0
 10
838.9432810645403
 20
544.3696540213268
 30
0.0
 10
838.7016336285506
 20
535.3830543782351
 30
0.0
 10
841.9608546612544
 20
528.3435500526975
 30
0.0
 10
851.0104473786305
 20
525.3355889708255
 30
0.0
 10
859.3277639832841
 20
522.5710319727259
 30
0.0
 10
866.511234319004
 20
517.5492527283423
 30
0.0
 10
874.598061552113
 20
514.194766276476
 30
0.0
 10
890.4052203316978
 20
507.637766403408
 30
0.0
 10
905.4946161117841
 20
499.3569607701065
 30
0.0
 10
920.9387124553368
 20
491.9092139691238
 30
0.0
 10
923.0829529311432
 20
490.875162486278
 30
0.0
 10
925.5376508143727
 20
490.4537646832141
 30
0.0
 10
927.8781969299362
 20
489.8666891114262
 30
0.0
 10
930.4978510602396
 20
489.2096247548725
 30
0.0
 10
932.8348800013
 20
488.7265098463613
 30
0.0
 10
932.978611130231
 20
485.0708854309269
 30
0.0
 10
933.2819197469644
 20
477.3560946360994
 30
0.0
 10
937.1535430403937
 20
475.0155451406245
 30
0.0
 10
944.661467001808
 20
477.0543767392955
 30
0.0
 10
947.2248234517465
 20
477.7504492366788
 30
0.0
 10
950.9005073188164
 20
478.3986009350738
 30
0.0
 10
952.6591708641108
 20
477.1240602960388
 30
0.0
 10
955.8306246599959
 20
474.8256933127923
 30
0.0
 10
958.8426535569943
 20
473.9111996449974
 30
0.0
 10
962.6217621909709
 20
473.6629882199268
 30
0.0
 10
965.1003707572563
 20
473.5001795945827
 30
0.0
 10
967.680069480044
 20
472.131018269647
 30
0.0
 10
966.066060226618
 20
468.3938674503297
 30
0.0
 10
965.5614334242528
 20
467.2254545935066
 30
0.0
 10
966.0747425359077
 20
465.6172997296781
 30
0.0
 10
966.1220908763789
 20
464.2104122215969
 30
0.0
 10
967.7205665782094
 20
464.2798515959221
 30
0.0
 10
969.7571708330397
 20
463.7479002043692
 30
0.0
 10
970.8343417640463
 20
464.532885623692
 30
0.0
 10
973.9152950741627
 20
466.7781429316274
 30
0.0
 10
976.0486864780796
 20
466.0411698796961
 30
0.0
 10
978.6738566976746
 20
463.7291592040019
 30
0.0
 10
981.064253611923
 20
461.6238794655874
 30
0.0
 10
984.0445134967231
 20
460.1920243055501
 30
0.0
 10
986.749731861375
 20
458.4401070447602
 30
0.0
 10
991.3566048440152
 20
455.4566862956162
 30
0.0
 10
997.5984527970686
 20
456.4683340418669
 30
0.0
 10
1001.70469680693
 20
451.3607704627393
 30
0.0
 10
1003.166666464978
 20
449.5422829710042
 30
0.0
 10
1005.040565159241
 20
448.5502613863755
 30
0.0
 10
1004.926535462706
 20
445.8614467211955
 30
0.0
 10
1004.79433242634
 20
442.7437561664847
 30
0.0
 10
1005.596568649442
 20
441.8039896187111
 30
0.0
 10
1009.345983480467
 20
442.3126826352163
 30
0.0
 10
1013.292955180361
 20
442.8482357173962
 30
0.0
 10
1018.071658540714
 20
442.2978485534913
 30
0.0
 10
1021.528957151957
 20
440.4393151456607
 30
0.0
 10
1031.391953693688
 20
435.1372907956102
 30
0.0
 10
1040.377670783684
 20
428.1105450012692
 30
0.0
 10
1050.445578980005
 20
423.3080263043485
 30
0.0
 10
1060.498762345982
 20
418.5125278518717
 30
0.0
 10
1071.480754440454
 20
415.6872152165815
 30
0.0
 10
1081.981557389972
 20
411.7982439806037
 30
0.0
 10
1086.972862886258
 20
409.9496915289928
 30
0.0
 10
1089.733043778266
 20
412.1429990280885
 30
0.0
 10
1091.705804830865
 20
416.3274615092851
 30
0.0
 10
1093.159427875235
 20
419.4107833890557
 30
0.0
 10
1094.539167366733
 20
422.5289928313941
 30
0.0
 10
1096.232629668448
 20
426.2482878116025
 30
0.0
 10
1098.995648714284
 20
418.9875542178779
 30
0.0
 10
1100.699639651164
 20
411.815519886477
 30
0.0
 10
1108.559769347274
 20
410.1336219332552
 30
0.0
 10
1114.617579809372
 20
408.8373185364617
 30
0.0
 10
1120.880195113823
 20
408.1738443915128
 30
0.0
 10
1127.078814627119
 20
407.9363769927113
 30
0.0
 10
1136.317096890009
 20
407.5824040590487
 30
0.0
 10
1139.481180641276
 20
410.1752550350502
 30
0.0
 10
1141.828455928015
 20
418.7743524465877
 30
0.0
 10
1142.097287079298
 20
419.7592316955706
 30
0.0
 10
1142.236783865821
 20
420.779425826353
 30
0.0
 10
1142.688324984494
 20
423.051665291172
 30
0.0
 10
1143.773995118092
 20
420.5388451017607
 30
0.0
 10
1144.261272560765
 20
419.2333848643975
 30
0.0
 10
1144.887527987652
 20
417.9985238678346
 30
0.0
 10
1146.202508743423
 20
415.4057644602399
 30
0.0
 10
1147.133545270081
 20
411.1434383113919
 30
0.0
 10
1149.043042958321
 20
410.6319371971113
 30
0.0
 10
1153.107920113198
 20
409.5430972848517
 30
0.0
 10
1157.912212634677
 20
409.5824716993047
 30
0.0
 10
1162.024361835571
 20
410.6537304776721
 30
0.0
 10
1169.842102330964
 20
412.6903033889976
 30
0.0
 10
1177.672995990866
 20
415.1605442697582
 30
0.0
 10
1184.981150544143
 20
418.5623105417726
 30
0.0
 10
1197.512026942914
 20
424.3950958941023
 30
0.0
 10
1209.888147663609
 20
430.6648456784642
 30
0.0
 10
1221.828108228314
 20
437.6125984614846
 30
0.0
 10
1226.714615657453
 20
440.4560111182982
 30
0.0
 10
1230.297281321647
 20
445.5408657328153
 30
0.0
 10
1234.473121135859
 20
449.6060451041776
 30
0.0
 10
1234.161412499328
 20
450.0209720732382
 30
0.0
 10
1233.849703862797
 20
450.4359295651011
 30
0.0
 10
1233.537995226267
 20
450.8508565341581
 30
0.0
 10
1234.860758016726
 20
450.8508565341581
 30
0.0
 10
1236.218372115483
 20
451.0474539012102
 30
0.0
 10
1237.500820914473
 20
450.8199979814344
 30
0.0
 10
1248.497812499332
 20
448.8695604170753
 30
0.0
 10
1255.237298682423
 20
454.803711994522
 30
0.0
 10
1260.644897257902
 20
463.2214123943559
 30
0.0
 10
1266.000340942075
 20
471.5579526639303
 30
0.0
 10
1271.558300634864
 20
479.7773158970049
 30
0.0
 10
1276.575180033386
 20
488.3139331330494
 30
0.0
 10
1279.778509653712
 20
493.7646035283615
 30
0.0
 10
1282.866726196207
 20
499.4757555151118
 30
0.0
 10
1284.753213475993
 20
505.4650007499913
 30
0.0
 10
1288.014771026468
 20
515.8199986479667
 30
0.0
 10
1290.773487064886
 20
526.3895565819148
 30
0.0
 10
1292.860781357438
 20
537.0420449686317
 30
0.0
 10
1294.806595207559
 20
546.9725775219531
 30
0.0
 10
1295.829124047938
 20
557.1067734709677
 30
0.0
 10
1296.792082175707
 20
567.1957956731685
 30
0.0
 10
1297.16119476224
 20
571.0631415039998
 30
0.0
 10
1296.33584131844
 20
575.0647724018027
 30
0.0
 10
1295.885032626564
 20
578.9856704885724
 30
0.0
 10
1295.11830384409
 20
585.6547348288223
 30
0.0
 10
1294.758865394801
 20
592.433849131331
 30
0.0
 10
1293.252080372276
 20
598.9405626882635
 30
0.0
 10
1290.663165278998
 20
610.1199204200166
 30
0.0
 10
1289.226265979763
 20
621.5919002536093
 30
0.0
 10
1283.123106091985
 20
631.8732618919958
 30
0.0
 10
1278.023554019062
 20
640.4639197488095
 30
0.0
 10
1274.472840473769
 20
649.9600212626547
 30
0.0
 10
1269.805511762817
 20
658.8283755711764
 30
0.0
 10
1267.853228142674
 20
662.5378574705692
 30
0.0
 10
1264.435053329358
 20
665.454356976541
 30
0.0
 10
1262.300609061927
 20
669.0935448631535
 30
0.0
 10
1257.749980353532
 20
676.8521740322103
 30
0.0
 10
1252.16312032015
 20
682.3217151498002
 30
0.0
 10
1242.247709485953
 20
681.0033132444314
 30
0.0
 10
1241.102102426357
 20
680.8509892015372
 30
0.0
 10
1239.327676446093
 20
681.8779517636431
 30
0.0
 10
1238.571934065534
 20
682.8973980857791
 30
0.0
 10
1231.607501303257
 20
692.2917365780822
 30
0.0
 10
1221.650189552871
 20
698.0750597299293
 30
0.0
 10
1212.076150640372
 20
703.991294422658
 30
0.0
 10
1203.863815209566
 20
709.0660345436927
 30
0.0
 10
1194.638655593404
 20
712.5411356626282
 30
0.0
 10
1185.745529457319
 20
716.4605801009575
 30
0.0
 10
1179.234987683009
 20
719.3299371393914
 30
0.0
 10
1172.634601555266
 20
722.0632387883434
 30
0.0
 10
1165.898960612849
 20
724.3378819238105
 30
0.0
 10
1155.726925740608
 20
727.7730019876053
 30
0.0
 10
1154.559162770489
 20
727.1666474510639
 30
0.0
 10
1149.504258214231
 20
718.3152027747974
 30
0.0
 10
1149.395004550755
 20
718.1238934831736
 30
0.0
 10
1148.929120074026
 20
718.1363200788983
 30
0.0
 10
1149.983326373254
 20
718.42706884377
 30
0.0
 10
1146.566158646783
 20
721.5799750811748
 30
0.0
 10
1143.920907725907
 20
726.1579260784465
 30
0.0
 10
1140.84279256962
 20
726.4704261550223
 30
0.0
 10
1130.53025382401
 20
727.5173811523737
 30
0.0
 10
1119.857239024484
 20
728.9463557229847
 30
0.0
 10
1109.871942467002
 20
724.6785163930408
 30
0.0
 10
1107.370460822287
 20
723.6093598726557
 30
0.0
 10
1105.670528750557
 20
720.5802884579189
 30
0.0
 10
1103.717512703624
 20
718.3509487911751
 30
0.0
 10
1102.88626932769
 20
717.4021169712396
 30
0.0
 10
1102.351384143385
 20
716.1935780759668
 30
0.0
 10
1101.461455070559
 20
714.7441112592287
 30
0.0
 10
1100.160848190626
 20
717.8437895454663
 30
0.0
 10
1098.892437571856
 20
720.4562743137894
 30
0.0
 10
1097.95990567383
 20
723.1836545391734
 30
0.0
 10
1096.495418298677
 20
727.466774346819
 30
0.0
 10
1093.452246004028
 20
728.7366755199664
 30
0.0
 10
1089.439706847159
 20
727.6385223377738
 30
0.0
 10
1081.336045241951
 20
725.4207202901498
 30
0.0
 10
1073.265632761428
 20
723.0657564014764
 30
0.0
 10
1065.246658004304
 20
720.5588881584354
 30
0.0
 10
1058.651261534102
 20
718.4970576285314
 30
0.0
 10
1058.519272122216
 20
718.4414565295165
 30
0.0
 10
1054.957663728354
 20
724.5884588660283
 30
0.0
 10
1052.872719305102
 20
728.1868644739498
 30
0.0
 10
1050.364874702613
 20
731.5085503598239
 30
0.0
 10
1045.863089706058
 20
731.8363766983057
 30
0.0
 10
1038.444857509159
 20
732.3765806924239
 30
0.0
 10
1031.002531522507
 20
732.6092293038737
 30
0.0
 10
1023.566827894789
 20
732.871870383543
 30
0.0
 10
1021.205392356696
 20
732.9552815704419
 30
0.0
 10
1018.802956177016
 20
732.4377560181365
 30
0.0
 10
1016.470451497298
 20
732.6826480884993
 30
0.0
 10
1006.9922689415
 20
733.6777753682209
 30
0.0
 10
997.6035797846307
 20
733.2382203133757
 30
0.0
 10
988.4001793478164
 20
730.8281856593703
 30
0.0
 10
983.5531924477873
 20
729.5589407264642
 30
0.0
 10
978.9483488977239
 20
727.3726763639052
 30
0.0
 10
974.1083810878044
 20
726.0669185292236
 30
0.0
 10
965.9470103547646
 20
723.8651027990954
 30
0.0
 10
965.9045448595862
 20
724.0211620698719
 30
0.0
 10
965.9046364129354
 20
715.5907870765477
 30
0.0
 10
965.9046516718263
 20
714.090862252915
 30
0.0
 10
965.5182812789571
 20
712.4540006938978
 30
0.0
 10
965.986286741605
 20
711.1170752631233
 30
0.0
 10
967.3095072988144
 20
707.3370131996808
 30
0.0
 10
966.0421190257803
 20
701.9999334116465
 30
0.0
 10
971.1265647960681
 20
700.3236974381753
 30
0.0
 10
980.5094555741525
 20
697.2303488179814
 30
0.0
 10
990.0335826523988
 20
694.5663797135503
 30
0.0
 10
999.4822697708369
 20
691.6694071700958
 30
0.0
 10
999.9641760836857
 20
691.5216615474874
 30
0.0
 10
1000.290182301596
 20
690.8653068460799
 30
0.0
 10
999.9875374466465
 20
691.1838656988339
 30
0.0
 10
996.2391449613533
 20
687.5626633732427
 30
0.0
 10
992.8381821777039
 20
684.2570744500217
 30
0.0
 10
989.4054503818516
 20
680.9848087957771
 30
0.0
 10
988.948660204489
 20
680.5493628731374
 30
0.0
 10
988.3740866432709
 20
680.1401894522369
 30
0.0
 10
987.7808361987991
 20
679.9599141535009
 30
0.0
 10
979.8992372422799
 20
677.5648585645285
 30
0.0
 10
971.2759035676427
 20
676.4827565607857
 30
0.0
 10
964.3198326779311
 20
672.4899772755361
 30
0.0
 10
957.4813620653758
 20
668.5646839052915
 30
0.0
 10
951.3972757920328
 20
663.7996243170101
 30
0.0
 10
943.1474950413667
 20
663.5326108459676
 30
0.0
 10
941.3375311026903
 20
658.7310459866094
 30
0.0
 10
936.3587073796898
 20
659.2183577803817
 30
0.0
 10
932.8083066416712
 20
657.3099424835391
 30
0.0
 10
926.1799280773857
 20
653.7470616016826
 30
0.0
 10
919.2924306462883
 20
650.8122484145697
 30
0.0
 10
912.8384917301737
 20
646.7323799447913
 30
0.0
 10
905.1590578277655
 20
641.877827501331
 30
0.0
 10
896.4474972422013
 20
638.316426975367
 30
0.0
 10
887.7665002164067
 20
635.4624381676913
 30
0.0
 10
872.8364187082425
 20
630.5540053481736
 30
0.0
 10
859.2443436231952
 20
622.8450138857088
 30
0.0
 10
845.1030972166345
 20
616.3045573712743
 30
0.0
 10
842.8530019954414
 20
615.2638824404148
 30
0.0
 10
840.2029826709586
 20
612.0498466614999
 30
0.0
 10
840.1766973229069
 20
609.8119606102237
 30
0.0
 10
840.1002655351458
 20
603.3048807796695
 30
0.0
 10
841.170182770582
 20
596.7708035308324
 30
0.0
 10
842.0450932794038
 20
590.2816558463956
 30
0.0
 10
842.1662107310613
 20
589.3833392636079
 30
0.0
 10
843.6900513796108
 20
588.0433729986944
 30
0.0
 10
844.6235674761429
 20
587.9925220107252
 30
0.0
 10
849.1328922724824
 20
587.746920285218
 30
0.0
 10
853.6624198412301
 20
587.8671801247137
 30
0.0
 10
858.1847814530356
 20
587.8670427721045
 30
0.0
 10
876.847554047089
 20
587.8665238844724
 30
0.0
 10
895.5104181944916
 20
587.8404726730487
 30
0.0
 10
914.1729962376794
 20
587.9017624592689
 30
0.0
 10
917.014560427755
 20
587.91108717525
 30
0.0
 10
917.9590476673102
 20
586.6888320958724
 30
0.0
 10
917.9341527857514
 20
583.9731421036167
 30
0.0
 10
917.8494583082165
 20
574.7330353293264
 30
0.0
 10
917.901773417887
 20
565.491692381559
 30
0.0
 10
917.901773417887
 20
556.2741572192763
 30
0.0
  0
SPLINE
  5
46
330
41
100
AcDbEntity
  8
Layer 1
 62
     7
420
 16777215
370
    35
100
AcDbSpline
210
0.0
220
0.0
230
1.0
 70
    11
 71
     3
 72
   272
 73
   268
 74
     0
 42
0.0000000001
 43
0.0000000001
 12
1.0
 22
0.0
 32
0.0
 13
1.0
 23
0.0
 33
0.0
 40
0.0
 40
0.0
 40
0.0
 40
0.0
 40
1.0
 40
1.0
 40
1.0
 40
2.0
 40
2.0
 40
2.0
 40
3.0
 40
3.0
 40
3.0
 40
4.0
 40
4.0
 40
4.0
 40
5.0
 40
5.0
 40
5.0
 40
6.0
 40
6.0
 40
6.0
 40
7.0
 40
7.0
 40
7.0
 40
8.0
 40
8.0
 40
8.0
 40
9.0
 40
9.0
 40
9.0
 40
10.0
 40
10.0
 40
10.0
 40
11.0
 40
11.0
 40
11.0
 40
12.0
 40
12.0
 40
12.0
 40
13.0
 40
13.0
 40
13.0
 40
14.0
 40
14.0
 40
14.0
 40
15.0
 40
15.0
 40
15.0
 40
16.0
 40
16.0
 40
16.0
 40
17.0
 40
17.0
 40
17.0
 40
18.0
 40
18.0
 40
18.0
 40
19.0
 40
19.0
 40
19.0
 40
20.0
 40
20.0
 40
20.0
 40
21.0
 40
21.0
 40
21.0
 40
22.0
 40
22.0
 40
22.0
 40
23.0
 40
23.0
 40
23.0
 40
24.0
 40
24.0
 40
24.0
 40
25.0
 40
25.0
 40
25.0
 40
26.0
 40
26.0
 40
26.0
 40
27.0
 40
27.0
 40
27.0
 40
28.0
 40
28.0
 40
28.0
 40
29.0
 40
29.0
 40
29.0
 40
30.0
 40
30.0
 40
30.0
 40
31.0
 40
31.0
 40
31.0
 40
32.0
 40
32.0
 40
32.0
 40
33.0
 40
33.0
 40
33.0
 40
34.0
 40
34.0
 40
34.0
 40
35.0
 40
35.0
 40
35.0
 40
36.0
 40
36.0
 40
36.0
 40
37.0
 40
37.0
 40
37.0
 40
38.0
 40
38.0
 40
38.0
 40
39.0
 40
39.0
 40
39.0
 40
40.0
 40
40.0
 40
40.0
 40
41.0
 40
41.0
 40
41.0
 40
42.0
 40
42.0
 40
42.0
 40
43.0
 40
43.0
 40
43.0
 40
44.0
 40
44.0
 40
44.0
 40
45.0
 40
45.0
 40
45.0
 40
46.0
 40
46.0
 40
46.0
 40
47.0
 40
47.0
 40
47.0
 40
48.0
 40
48.0
 40
48.0
 40
49.0
 40
49.0
 40
49.0
 40
50.0
 40
50.0
 40
50.0
 40
51.0
 40
51.0
 40
51.0
 40
52.0
 40
52.0
 40
52.0
 40
53.0
 40
53.0
 40
53.0
 40
54.0
 40
54.0
 40
54.0
 40
55.0
 40
55.0
 40
55.0
 40
56.0
 40
56.0
 40
56.0
 40
57.0
 40
57.0
 40
57.0
 40
58.0
 40
58.0
 40
58.0
 40
59.0
 40
59.0
 40
59.0
 40
60.0
 40
60.0
 40
60.0
 40
61.0
 40
61.0
 40
61.0
 40
62.0
 40
62.0
 40
62.0
 40
63.0
 40
63.0
 40
63.0
 40
64.0
 40
64.0
 40
64.0
 40
65.0
 40
65.0
 40
65.0
 40
66.0
 40
66.0
 40
66.0
 40
67.0
 40
67.0
 40
67.0
 40
68.0
 40
68.0
 40
68.0
 40
69.0
 40
69.0
 40
69.0
 40
70.0
 40
70.0
 40
70.0
 40
71.0
 40
71.0
 40
71.0
 40
72.0
 40
72.0
 40
72.0
 40
73.0
 40
73.0
 40
73.0
 40
74.0
 40
74.0
 40
74.0
 40
75.0
 40
75.0
 40
75.0
 40
76.0
 40
76.0
 40
76.0
 40
77.0
 40
77.0
 40
77.0
 40
78.0
 40
78.0
 40
78.0
 40
79.0
 40
79.0
 40
79.0
 40
80.0
 40
80.0
 40
80.0
 40
81.0
 40
81.0
 40
81.0
 40
82.0
 40
82.0
 40
82.0
 40
83.0
 40
83.0
 40
83.0
 40
84.0
 40
84.0
 40
84.0
 40
85.0
 40
85.0
 40
85.0
 40
86.0
 40
86.0
 40
86.0
 40
87.0
 40
87.0
 40
87.0
 40
88.0
 40
88.0
 40
88.0
 40
89.0
 40
89.0
 40
89.0
 40
89.0
 10
917.9017734178879
 20
556.2741572192772
 30
0.0
 10
917.9017734178879
 20
565.4916923815599
 30
0.0
 10
917.8494583082174
 20
574.7330353293273
 30
0.0
 10
917.9341527857523
 20
583.9731421036176
 30
0.0
 10
917.9590476673111
 20
586.6888320958733
 30
0.0
 10
917.0145604277559
 20
587.9110871752509
 30
0.0
 10
914.1729962376803
 20
587.9017624592698
 30
0.0
 10
895.5104181944926
 20
587.8404726730496
 30
0.0
 10
876.84755404709
 20
587.8665238844733
 30
0.0
 10
858.1847814530365
 20
587.8670427721054
 30
0.0
 10
853.662419841231
 20
587.8671801247147
 30
0.0
 10
849.1328922724833
 20
587.746920285219
 30
0.0
 10
844.6235674761438
 20
587.9925220107261
 30
0.0
 10
843.6900513796118
 20
588.0433729986953
 30
0.0
 10
842.1662107310622
 20
589.3833392636088
 30
0.0
 10
842.0450932794047
 20
590.2816558463965
 30
0.0
 10
841.1701827705829
 20
596.7708035308333
 30
0.0
 10
840.1002655351467
 20
603.3048807796704
 30
0.0
 10
840.1766973229078
 20
609.8119606102246
 30
0.0
 10
840.2029826709595
 20
612.0498466615009
 30
0.0
 10
842.8530019954424
 20
615.2638824404157
 30
0.0
 10
845.1030972166354
 20
616.3045573712752
 30
0.0
 10
859.2443436231961
 20
622.8450138857097
 30
0.0
 10
872.8364187082434
 20
630.5540053481745
 30
0.0
 10
887.7665002164076
 20
635.4624381676922
 30
0.0
 10
896.4474972422022
 20
638.3164269753679
 30
0.0
 10
905.1590578277664
 20
641.8778275013319
 30
0.0
 10
912.8384917301746
 20
646.7323799447922
 30
0.0
 10
919.2924306462892
 20
650.8122484145706
 30
0.0
 10
926.1799280773866
 20
653.7470616016835
 30
0.0
 10
932.8083066416721
 20
657.30994248354
 30
0.0
 10
936.3587073796907
 20
659.2183577803826
 30
0.0
 10
941.3375311026912
 20
658.7310459866103
 30
0.0
 10
943.1474950413676
 20
663.5326108459685
 30
0.0
 10
951.3972757920337
 20
663.799624317011
 30
0.0
 10
957.4813620653767
 20
668.5646839052924
 30
0.0
 10
964.3198326779329
 20
672.4899772755371
 30
0.0
 10
971.2759035676427
 20
676.4827565607866
 30
0.0
 10
979.8992372422817
 20
677.5648585645295
 30
0.0
 10
987.7808361987991
 20
679.9599141535018
 30
0.0
 10
988.3740866432709
 20
680.1401894522378
 30
0.0
 10
988.948660204489
 20
680.5493628731383
 30
0.0
 10
989.4054503818516
 20
680.984808795778
 30
0.0
 10
992.8381821777039
 20
684.2570744500226
 30
0.0
 10
996.2391449613533
 20
687.5626633732436
 30
0.0
 10
999.9875374466465
 20
691.1838656988348
 30
0.0
 10
1000.290182301596
 20
690.8653068460808
 30
0.0
 10
999.9641760836857
 20
691.5216615474883
 30
0.0
 10
999.4822697708369
 20
691.6694071700967
 30
0.0
 10
990.0335826523988
 20
694.5663797135512
 30
0.0
 10
980.5094555741525
 20
697.2303488179823
 30
0.0
 10
971.1265647960699
 20
700.3236974381762
 30
0.0
 10
966.0421190257803
 20
701.9999334116474
 30
0.0
 10
967.3095072988144
 20
707.3370131996817
 30
0.0
 10
965.9862867416068
 20
711.1170752631242
 30
0.0
 10
965.5182812789571
 20
712.4540006938987
 30
0.0
 10
965.9046516718281
 20
714.0908622529159
 30
0.0
 10
965.9046364129354
 20
715.5907870765486
 30
0.0
 10
965.904544859588
 20
724.0211620698728
 30
0.0
 10
965.9470103547646
 20
723.8651027990963
 30
0.0
 10
974.1083810878044
 20
726.0669185292245
 30
0.0
 10
978.9483488977239
 20
727.3726763639061
 30
0.0
 10
983.5531924477873
 20
729.5589407264652
 30
0.0
 10
988.4001793478164
 20
730.8281856593712
 30
0.0
 10
997.6035797846307
 20
733.2382203133766
 30
0.0
 10
1006.9922689415
 20
733.6777753682218
 30
0.0
 10
1016.470451497298
 20
732.6826480885002
 30
0.0
 10
1018.802956177016
 20
732.4377560181374
 30
0.0
 10
1021.205392356696
 20
732.9552815704428
 30
0.0
 10
1023.566827894789
 20
732.8718703835439
 30
0.0
 10
1031.002531522507
 20
732.6092293038746
 30
0.0
 10
1038.444857509159
 20
732.3765806924248
 30
0.0
 10
1045.863089706059
 20
731.8363766983066
 30
0.0
 10
1050.364874702613
 20
731.5085503598248
 30
0.0
 10
1052.872719305102
 20
728.1868644739507
 30
0.0
 10
1054.957663728354
 20
724.5884588660292
 30
0.0
 10
1058.519272122216
 20
718.4414565295174
 30
0.0
 10
1058.651261534102
 20
718.4970576285323
 30
0.0
 10
1065.246658004304
 20
720.5588881584363
 30
0.0
 10
1073.265632761428
 20
723.0657564014773
 30
0.0
 10
1081.336045241951
 20
725.4207202901507
 30
0.0
 10
1089.439706847159
 20
727.6385223377747
 30
0.0
 10
1093.452246004028
 20
728.7366755199673
 30
0.0
 10
1096.495418298677
 20
727.4667743468199
 30
0.0
 10
1097.95990567383
 20
723.1836545391743
 30
0.0
 10
1098.892437571856
 20
720.4562743137903
 30
0.0
 10
1100.160848190626
 20
717.8437895454672
 30
0.0
 10
1101.461455070559
 20
714.7441112592296
 30
0.0
 10
1102.351384143385
 20
716.1935780759677
 30
0.0
 10
1102.88626932769
 20
717.4021169712405
 30
0.0
 10
1103.717512703624
 20
718.350948791176
 30
0.0
 10
1105.670528750557
 20
720.5802884579198
 30
0.0
 10
1107.370460822287
 20
723.6093598726566
 30
0.0
 10
1109.871942467002
 20
724.6785163930417
 30
0.0
 10
1119.857239024484
 20
728.9463557229856
 30
0.0
 10
1130.53025382401
 20
727.5173811523746
 30
0.0
 10
1140.84279256962
 20
726.4704261550232
 30
0.0
 10
1143.920907725907
 20
726.1579260784474
 30
0.0
 10
1146.566158646783
 20
721.5799750811757
 30
0.0
 10
1149.983326373254
 20
718.4270688437709
 30
0.0
 10
1148.929120074026
 20
718.1363200788992
 30
0.0
 10
1149.395004550755
 20
718.1238934831745
 30
0.0
 10
1149.504258214231
 20
718.3152027747983
 30
0.0
 10
1154.559162770489
 20
727.1666474510648
 30
0.0
 10
1155.726925740608
 20
727.7730019876062
 30
0.0
 10
1165.898960612849
 20
724.3378819238114
 30
0.0
 10
1172.634601555266
 20
722.0632387883443
 30
0.0
 10
1179.234987683009
 20
719.3299371393923
 30
0.0
 10
1185.745529457319
 20
716.4605801009584
 30
0.0
 10
1194.638655593404
 20
712.5411356626291
 30
0.0
 10
1203.863815209566
 20
709.0660345436936
 30
0.0
 10
1212.076150640372
 20
703.9912944226589
 30
0.0
 10
1221.650189552871
 20
698.0750597299302
 30
0.0
 10
1231.607501303257
 20
692.2917365780831
 30
0.0
 10
1238.571934065534
 20
682.89739808578
 30
0.0
 10
1239.327676446093
 20
681.877951763644
 30
0.0
 10
1241.102102426357
 20
680.8509892015381
 30
0.0
 10
1242.247709485953
 20
681.0033132444323
 30
0.0
 10
1252.16312032015
 20
682.3217151498011
 30
0.0
 10
1257.749980353532
 20
676.8521740322112
 30
0.0
 10
1262.300609061927
 20
669.0935448631544
 30
0.0
 10
1264.435053329358
 20
665.4543569765419
 30
0.0
 10
1267.853228142674
 20
662.5378574705701
 30
0.0
 10
1269.805511762817
 20
658.8283755711773
 30
0.0
 10
1274.472840473769
 20
649.9600212626556
 30
0.0
 10
1278.023554019062
 20
640.4639197488104
 30
0.0
 10
1283.123106091985
 20
631.8732618919967
 30
0.0
 10
1289.226265979763
 20
621.5919002536102
 30
0.0
 10
1290.663165278998
 20
610.1199204200175
 30
0.0
 10
1293.252080372276
 20
598.9405626882644
 30
0.0
 10
1294.758865394801
 20
592.433849131332
 30
0.0
 10
1295.11830384409
 20
585.6547348288232
 30
0.0
 10
1295.885032626564
 20
578.9856704885733
 30
0.0
 10
1296.33584131844
 20
575.0647724018036
 30
0.0
 10
1297.16119476224
 20
571.0631415040007
 30
0.0
 10
1296.792082175707
 20
567.1957956731694
 30
0.0
 10
1295.829124047938
 20
557.1067734709686
 30
0.0
 10
1294.806595207559
 20
546.972577521954
 30
0.0
 10
1292.860781357438
 20
537.0420449686335
 30
0.0
 10
1290.773487064886
 20
526.3895565819166
 30
0.0
 10
1288.014771026468
 20
515.8199986479667
 30
0.0
 10
1284.753213475993
 20
505.4650007499913
 30
0.0
 10
1282.866726196207
 20
499.4757555151118
 30
0.0
 10
1279.778509653712
 20
493.7646035283633
 30
0.0
 10
1276.575180033386
 20
488.3139331330494
 30
0.0
 10
1271.558300634864
 20
479.7773158970049
 30
0.0
 10
1266.000340942075
 20
471.5579526639303
 30
0.0
 10
1260.644897257902
 20
463.2214123943559
 30
0.0
 10
1255.237298682423
 20
454.8037119945238
 30
0.0
 10
1248.497812499332
 20
448.8695604170771
 30
0.0
 10
1237.500820914473
 20
450.8199979814362
 30
0.0
 10
1236.218372115483
 20
451.0474539012121
 30
0.0
 10
1234.860758016726
 20
450.8508565341599
 30
0.0
 10
1233.537995226267
 20
450.8508565341599
 30
0.0
 10
1233.849703862797
 20
450.4359295651011
 30
0.0
 10
1234.161412499328
 20
450.0209720732382
 30
0.0
 10
1234.473121135859
 20
449.6060451041776
 30
0.0
 10
1230.297281321647
 20
445.5408657328153
 30
0.0
 10
1226.714615657453
 20
440.4560111183
 30
0.0
 10
1221.828108228314
 20
437.6125984614846
 30
0.0
 10
1209.888147663609
 20
430.6648456784642
 30
0.0
 10
1197.512026942914
 20
424.3950958941023
 30
0.0
 10
1184.981150544143
 20
418.5623105417744
 30
0.0
 10
1177.672995990866
 20
415.1605442697582
 30
0.0
 10
1169.842102330964
 20
412.6903033889994
 30
0.0
 10
1162.024361835571
 20
410.6537304776721
 30
0.0
 10
1157.912212634677
 20
409.5824716993047
 30
0.0
 10
1153.107920113198
 20
409.5430972848517
 30
0.0
 10
1149.043042958321
 20
410.6319371971131
 30
0.0
 10
1147.133545270081
 20
411.1434383113919
 30
0.0
 10
1146.202508743423
 20
415.4057644602417
 30
0.0
 10
1144.887527987652
 20
417.9985238678364
 30
0.0
 10
1144.261272560765
 20
419.2333848643993
 30
0.0
 10
1143.773995118092
 20
420.5388451017625
 30
0.0
 10
1142.688324984494
 20
423.0516652911738
 30
0.0
 10
1142.236783865821
 20
420.7794258263548
 30
0.0
 10
1142.097287079298
 20
419.7592316955725
 30
0.0
 10
1141.828455928015
 20
418.7743524465895
 30
0.0
 10
1139.481180641276
 20
410.1752550350502
 30
0.0
 10
1136.317096890009
 20
407.5824040590505
 30
0.0
 10
1127.078814627119
 20
407.9363769927113
 30
0.0
 10
1120.880195113823
 20
408.1738443915128
 30
0.0
 10
1114.617579809372
 20
408.8373185364635
 30
0.0
 10
1108.559769347274
 20
410.1336219332552
 30
0.0
 10
1100.699639651164
 20
411.8155198864788
 30
0.0
 10
1098.995648714284
 20
418.9875542178779
 30
0.0
 10
1096.232629668448
 20
426.2482878116025
 30
0.0
 10
1094.539167366733
 20
422.528992831396
 30
0.0
 10
1093.159427875235
 20
419.4107833890557
 30
0.0
 10
1091.705804830865
 20
416.3274615092869
 30
0.0
 10
1089.733043778266
 20
412.1429990280903
 30
0.0
 10
1086.972862886258
 20
409.9496915289928
 30
0.0
 10
1081.981557389972
 20
411.7982439806037
 30
0.0
 10
1071.480754440454
 20
415.6872152165834
 30
0.0
 10
1060.498762345984
 20
418.5125278518717
 30
0.0
 10
1050.445578980007
 20
423.3080263043503
 30
0.0
 10
1040.377670783684
 20
428.1105450012692
 30
0.0
 10
1031.391953693688
 20
435.137290795612
 30
0.0
 10
1021.528957151957
 20
440.4393151456607
 30
0.0
 10
1018.071658540715
 20
442.2978485534932
 30
0.0
 10
1013.292955180361
 20
442.8482357173962
 30
0.0
 10
1009.345983480469
 20
442.3126826352182
 30
0.0
 10
1005.596568649444
 20
441.8039896187129
 30
0.0
 10
1004.79433242634
 20
442.7437561664847
 30
0.0
 10
1004.926535462706
 20
445.8614467211955
 30
0.0
 10
1005.040565159241
 20
448.5502613863755
 30
0.0
 10
1003.166666464978
 20
449.5422829710042
 30
0.0
 10
1001.704696806932
 20
451.3607704627411
 30
0.0
 10
997.5984527970686
 20
456.4683340418687
 30
0.0
 10
991.356604844017
 20
455.4566862956181
 30
0.0
 10
986.7497318613769
 20
458.4401070447602
 30
0.0
 10
984.0445134967231
 20
460.1920243055501
 30
0.0
 10
981.0642536119249
 20
461.6238794655892
 30
0.0
 10
978.6738566976765
 20
463.7291592040019
 30
0.0
 10
976.0486864780796
 20
466.0411698796979
 30
0.0
 10
973.9152950741627
 20
466.7781429316292
 30
0.0
 10
970.8343417640463
 20
464.5328856236938
 30
0.0
 10
969.7571708330397
 20
463.7479002043692
 30
0.0
 10
967.7205665782094
 20
464.2798515959239
 30
0.0
 10
966.1220908763789
 20
464.2104122215969
 30
0.0
 10
966.0747425359077
 20
465.6172997296799
 30
0.0
 10
965.5614334242528
 20
467.2254545935084
 30
0.0
 10
966.066060226618
 20
468.3938674503297
 30
0.0
 10
967.680069480044
 20
472.1310182696488
 30
0.0
 10
965.1003707572563
 20
473.5001795945827
 30
0.0
 10
962.6217621909727
 20
473.6629882199286
 30
0.0
 10
958.8426535569952
 20
473.9111996449992
 30
0.0
 10
955.8306246599968
 20
474.8256933127923
 30
0.0
 10
952.6591708641117
 20
477.1240602960406
 30
0.0
 10
950.9005073188173
 20
478.3986009350756
 30
0.0
 10
947.2248234517474
 20
477.7504492366788
 30
0.0
 10
944.6614670018089
 20
477.0543767392955
 30
0.0
 10
937.1535430403947
 20
475.0155451406263
 30
0.0
 10
933.2819197469653
 20
477.3560946361013
 30
0.0
 10
932.9786111302319
 20
485.0708854309269
 30
0.0
 10
932.8348800013009
 20
488.7265098463631
 30
0.0
 10
930.4978510602405
 20
489.2096247548725
 30
0.0
 10
927.8781969299371
 20
489.8666891114262
 30
0.0
 10
925.5376508143736
 20
490.4537646832159
 30
0.0
 10
923.0829529311441
 20
490.875162486278
 30
0.0
 10
920.9387124553377
 20
491.9092139691256
 30
0.0
 10
905.494616111785
 20
499.3569607701065
 30
0.0
 10
890.4052203316987
 20
507.6377664034098
 30
0.0
 10
874.5980615521139
 20
514.194766276476
 30
0.0
 10
866.5112343190049
 20
517.5492527283441
 30
0.0
 10
859.327763983285
 20
522.5710319727277
 30
0.0
 10
851.0104473786314
 20
525.3355889708273
 30
0.0
 10
841.9608546612553
 20
528.3435500526994
 30
0.0
 10
838.7016336285515
 20
535.3830543782351
 30
0.0
 10
838.9432810645412
 20
544.3696540213277
 30
0.0
 10
839.0489546105919
 20
548.2994952890549
 30
0.0
 10
839.0193390094591
 20
552.3901154158029
 30
0.0
 10
840.1473354008476
 20
556.0717452584613
 30
0.0
 10
840.7484613407187
 20
558.0337204419411
 30
0.0
 10
843.5205308166042
 20
560.2775126553861
 30
0.0
 10
845.6066291935304
 20
560.6239922411805
 30
0.0
 10
849.081584249655
 20
561.2011173795509
 30
0.0
 10
852.7929224241861
 20
560.1609613363216
 30
0.0
 10
856.4044502817442
 20
560.1637389112948
 30
0.0
 10
859.989290337986
 20
560.1665012248668
 30
0.0
 10
863.6147571929723
 20
561.0899838578243
 30
0.0
 10
867.1510434563106
 20
560.784206428365
 30
0.0
 10
879.7202768937068
 20
559.6973352368259
 30
0.0
 10
892.254773464495
 20
558.2146901344204
 30
0.0
 10
904.8120248573041
 20
556.9794933870362
 30
0.0
 10
908.5547410349409
 20
556.6113120890896
 30
0.0
 10
912.3289210469484
 20
556.5629944936791
 30
0.0
 10
917.9017734178879
 20
556.2741572192772
 30
0.0
  0
ENDBLK
  5
44
330
41
100
AcDbEntity
  8
0
100
AcDbBlockEnd
  0
ENDSEC
  0
SECTION
  2
ENTITIES
  0
INSERT
  5
42
330
1F
100
AcDbEntity
  8
Layer 1
100
AcDbBlockReference
  2
block 2
 10
0.0
 20
0.0
 30
0.0
  0
ENDSEC
  0
SECTION
  2
OBJECTS
  0
DICTIONARY
  5
C
330
0
100
AcDbDictionary
281
     1
  3
ACAD_GROUP
350
D
  3
ACAD_LAYOUT
350
1A
  3
ACAD_MATERIAL
350
3B
  3
ACAD_MLEADERSTYLE
350
48
  3
ACAD_MLINESTYLE
350
17
  3
ACAD_PLOTSETTINGS
350
19
  3
ACAD_PLOTSTYLENAME
350
E
  3
ACAD_TABLESTYLE
350
47
  3
ACAD_VISUALSTYLE
350
2A
  0
SUN
  5
3F
330
29
100
AcDbSun
 90
        1
290
     0
 63
     7
421
 16777215
 40
1.0
291
     1
 91
  2455826
 92
 54000000
292
     0
 70
     2
 71
   256
280
     1
  0
DICTIONARY
  5
D
102
{ACAD_REACTORS
330
C
102
}
330
C
100
AcDbDictionary
281
     1
  0
DICTIONARY
  5
1A
102
{ACAD_REACTORS
330
C
102
}
330
C
100
AcDbDictionary
281
     1
  3
Layout1
350
1E
  3
Layout2
350
26
  3
Model
350
22
  0
DICTIONARY
  5
3B
102
{ACAD_REACTORS
330
C
102
}
330
C
100
AcDbDictionary
281
     1
  3
ByBlock
350
3D
  3
ByLayer
350
3C
  3
Global
350
3E
  0
DICTIONARY
  5
48
102
{ACAD_REACTORS
330
C
102
}
330
C
100
AcDbDictionary
281
     1
  0
DICTIONARY
  5
17
102
{ACAD_REACTORS
330
C
102
}
330
C
100
AcDbDictionary
281
     1
  3
Standard
350
18
  0
DICTIONARY
  5
19
102
{ACAD_REACTORS
330
C
102
}
330
C
100
AcDbDictionary
281
     1
  0
ACDBDICTIONARYWDFLT
  5
E
102
{ACAD_REACTORS
330
C
102
}
330
C
100
AcDbDictionary
281
     1
  3
Normal
350
F
100
AcDbDictionaryWithDefault
340
F
  0
DICTIONARY
  5
47
102
{ACAD_REACTORS
330
C
102
}
330
C
100
AcDbDictionary
281
     1
  0
DICTIONARY
  5
2A
102
{ACAD_REACTORS
330
C
102
}
330
C
100
AcDbDictionary
281
     1
  3
2dWireframe
350
2F
  3
3D Hidden
350
31
  3
3dWireframe
350
30
  3
Basic
350
32
  3
Brighten
350
36
  3
ColorChange
350
3A
  3
Conceptual
350
34
  3
Dim
350
35
  3
Facepattern
350
39
  3
Flat
350
2B
  3
FlatWithEdges
350
2C
  3
Gouraud
350
2D
  3
GouraudWithEdges
350
2E
  3
Linepattern
350
38
  3
Realistic
350
33
  3
Thicken
350
37
  0
LAYOUT
  5
1E
102
{ACAD_REACTORS
330
1A
102
}
330
1A
100
AcDbPlotSettings
  1

  2
none_device
  4

  6

 40
0.0
 41
0.0
 42
0.0
 43
0.0
 44
0.0
 45
0.0
 46
0.0
 47
0.0
 48
0.0
 49
0.0
140
0.0
141
0.0
142
1.0
143
1.0
 70
   688
 72
     0
 73
     0
 74
     5
  7

 75
    16
 76
     0
 77
     2
 78
   300
147
1.0
148
0.0
149
0.0
100
AcDbLayout
  1
Layout1
 70
     1
 71
     1
 10
0.0
 20
0.0
 11
12.0
 21
9.0
 12
0.0
 22
0.0
 32
0.0
 14
1.000000000000000E+20
 24
1.000000000000000E+20
 34
1.000000000000000E+20
 15
-1.000000000000000E+20
 25
-1.000000000000000E+20
 35
-1.000000000000000E+20
146
0.0
 13
0.0
 23
0.0
 33
0.0
 16
1.0
 26
0.0
 36
0.0
 17
0.0
 27
1.0
 37
0.0
 76
     0
330
1B
  0
LAYOUT
  5
26
102
{ACAD_REACTORS
330
1A
102
}
330
1A
100
AcDbPlotSettings
  1

  2
none_device
  4

  6

 40
0.0
 41
0.0
 42
0.0
 43
0.0
 44
0.0
 45
0.0
 46
0.0
 47
0.0
 48
0.0
 49
0.0
140
0.0
141
0.0
142
1.0
143
1.0
 70
   688
 72
     0
 73
     0
 74
     5
  7

 75
    16
 76
     0
 77
     2
 78
   300
147
1.0
148
0.0
149
0.0
100
AcDbLayout
  1
Layout2
 70
     1
 71
     2
 10
0.0
 20
0.0
 11
0.0
 21
0.0
 12
0.0
 22
0.0
 32
0.0
 14
0.0
 24
0.0
 34
0.0
 15
0.0
 25
0.0
 35
0.0
146
0.0
 13
0.0
 23
0.0
 33
0.0
 16
1.0
 26
0.0
 36
0.0
 17
0.0
 27
1.0
 37
0.0
 76
     0
330
23
  0
LAYOUT
  5
22
102
{ACAD_REACTORS
330
1A
102
}
330
1A
100
AcDbPlotSettings
  1

  2
none_device
  4

  6

 40
0.0
 41
0.0
 42
0.0
 43
0.0
 44
0.0
 45
0.0
 46
0.0
 47
0.0
 48
0.0
 49
0.0
140
0.0
141
0.0
142
1.0
143
1.0
 70
  1712
 72
     0
 73
     0
 74
     0
  7

 75
     0
 76
     0
 77
     2
 78
   300
147
1.0
148
0.0
149
0.0
100
AcDbLayout
  1
Model
 70
     1
 71
     0
 10
0.0
 20
0.0
 11
12.0
 21
9.0
 12
0.0
 22
0.0
 32
0.0
 14
1.000000000000000E+20
 24
1.000000000000000E+20
 34
1.000000000000000E+20
 15
-1.000000000000000E+20
 25
-1.000000000000000E+20
 35
-1.000000000000000E+20
146
0.0
 13
0.0
 23
0.0
 33
0.0
 16
1.0
 26
0.0
 36
0.0
 17
0.0
 27
1.0
 37
0.0
 76
     0
330
1F
331
29
  0
MATERIAL
  5
3D
102
{ACAD_REACTORS
330
3B
102
}
330
3B
100
AcDbMaterial
  1
ByBlock
 72
     1
 94
      127
  0
MATERIAL
  5
3C
102
{ACAD_REACTORS
330
3B
102
}
330
3B
100
AcDbMaterial
  1
ByLayer
 72
     1
 94
      127
  0
MATERIAL
  5
3E
102
{ACAD_REACTORS
330
3B
102
}
330
3B
100
AcDbMaterial
  1
Global
 72
     1
 94
      127
  0
MLINESTYLE
  5
18
102
{ACAD_REACTORS
330
17
102
}
330
17
100
AcDbMlineStyle
  2
Standard
 70
     0
  3

 62
   256
 51
90.0
 52
90.0
 71
     2
 49
0.5
 62
   256
  6
BYLAYER
 49
-0.5
 62
   256
  6
BYLAYER
  0
ACDBPLACEHOLDER
  5
F
102
{ACAD_REACTORS
330
E
102
}
330
E
  0
VISUALSTYLE
  5
2F
102
{ACAD_REACTORS
330
2A
102
}
330
2A
100
AcDbVisualStyle
  2
2dWireframe
 70
     4
177
     2
291
     0
 71
     0
176
     1
 72
     2
176
     1
 73
     0
176
     1
 90
        0
176
     1
 40
-0.6
176
     1
 41
-30.0
176
     1
 62
     5
 63
     7
421
 16777215
176
     1
 74
     1
176
     1
 91
        4
176
     1
 64
     7
176
     1
 65
   257
176
     1
 75
     1
176
     1
175
     1
176
     1
 42
1.0
176
     1
 92
        0
176
     1
 66
   257
176
     1
 43
1.0
176
     1
 76
     1
176
     1
 77
     6
176
     1
 78
     2
176
     1
 67
     7
176
     1
 79
     5
176
     1
170
     0
176
     1
171
     0
176
     1
290
     0
176
     1
 93
        1
176
     1
 44
0.0
176
     1
173
     0
176
     1
  0
VISUALSTYLE
  5
31
102
{ACAD_REACTORS
330
2A
102
}
330
2A
100
AcDbVisualStyle
  2
3D Hidden
 70
     6
177
     2
291
     0
 71
     1
176
     1
 72
     2
176
     1
 73
     2
176
     1
 90
        0
176
     1
 40
-0.6
176
     1
 41
-30.0
176
     1
 62
     5
 63
     7
421
 16777215
176
     1
 74
     2
176
     1
 91
        2
176
     1
 64
     7
176
     1
 65
   257
176
     1
 75
     2
176
     1
175
     1
176
     1
 42
40.0
176
     1
 92
        0
176
     1
 66
   257
176
     1
 43
1.0
176
     1
 76
     1
176
     1
 77
     6
176
     1
 78
     2
176
     1
 67
     7
176
     1
 79
     3
176
     1
170
     0
176
     1
171
     0
176
     1
290
     0
176
     1
 93
        1
176
     1
 44
0.0
176
     1
173
     0
176
     1
  0
VISUALSTYLE
  5
30
102
{ACAD_REACTORS
330
2A
102
}
330
2A
100
AcDbVisualStyle
  2
3dWireframe
 70
     5
177
     2
291
     0
 71
     0
176
     1
 72
     2
176
     1
 73
     0
176
     1
 90
        0
176
     1
 40
-0.6
176
     1
 41
-30.0
176
     1
 62
     5
 63
     7
421
 16777215
176
     1
 74
     1
176
     1
 91
        4
176
     1
 64
     7
176
     1
 65
   257
176
     1
 75
     1
176
     1
175
     1
176
     1
 42
1.0
176
     1
 92
        0
176
     1
 66
   257
176
     1
 43
1.0
176
     1
 76
     1
176
     1
 77
     6
176
     1
 78
     2
176
     1
 67
     7
176
     1
 79
     5
176
     1
170
     0
176
     1
171
     0
176
     1
290
     0
176
     1
 93
        1
176
     1
 44
0.0
176
     1
173
     0
176
     1
  0
VISUALSTYLE
  5
32
102
{ACAD_REACTORS
330
2A
102
}
330
2A
100
AcDbVisualStyle
  2
Basic
 70
     7
177
     2
291
     1
 71
     1
176
     1
 72
     0
176
     1
 73
     1
176
     1
 90
        0
176
     1
 40
-0.6
176
     1
 41
-30.0
176
     1
 62
     5
 63
     7
421
 16777215
176
     1
 74
     0
176
     1
 91
        4
176
     1
 64
     7
176
     1
 65
   257
176
     1
 75
     1
176
     1
175
     1
176
     1
 42
1.0
176
     1
 92
        8
176
     1
 66
     7
176
     1
 43
1.0
176
     1
 76
     1
176
     1
 77
     6
176
     1
 78
     2
176
     1
 67
     7
176
     1
 79
     5
176
     1
170
     0
176
     1
171
     0
176
     1
290
     0
176
     1
 93
        1
176
     1
 44
0.0
176
     1
173
     0
176
     1
  0
VISUALSTYLE
  5
36
102
{ACAD_REACTORS
330
2A
102
}
330
2A
100
AcDbVisualStyle
  2
Brighten
 70
    12
177
     2
291
     1
 71
     2
176
     1
 72
     2
176
     1
 73
     0
176
     1
 90
        0
176
     1
 40
-0.6
176
     1
 41
-30.0
176
     1
 62
     5
 63
     7
421
 16777215
176
     1
 74
     1
176
     1
 91
        4
176
     1
 64
     7
176
     1
 65
   257
176
     1
 75
     1
176
     1
175
     1
176
     1
 42
1.0
176
     1
 92
        8
176
     1
 66
     7
176
     1
 43
1.0
176
     1
 76
     1
176
     1
 77
     6
176
     1
 78
     2
176
     1
 67
     7
176
     1
 79
     5
176
     1
170
     0
176
     1
171
     0
176
     1
290
     0
176
     1
 93
        1
176
     1
 44
50.0
176
     1
173
     0
176
     1
  0
VISUALSTYLE
  5
3A
102
{ACAD_REACTORS
330
2A
102
}
330
2A
100
AcDbVisualStyle
  2
ColorChange
 70
    16
177
     2
291
     1
 71
     2
176
     1
 72
     2
176
     1
 73
     3
176
     1
 90
        0
176
     1
 40
-0.6
176
     1
 41
-30.0
176
     1
 62
     5
 63
     8
421
  8421504
176
     1
 74
     1
176
     1
 91
        4
176
     1
 64
     7
176
     1
 65
   257
176
     1
 75
     1
176
     1
175
     1
176
     1
 42
1.0
176
     1
 92
        8
176
     1
 66
     8
424
  8421504
176
     1
 43
1.0
176
     1
 76
     1
176
     1
 77
     6
176
     1
 78
     2
176
     1
 67
     7
176
     1
 79
     5
176
     1
170
     0
176
     1
171
     0
176
     1
290
     0
176
     1
 93
        1
176
     1
 44
0.0
176
     1
173
     0
176
     1
  0
VISUALSTYLE
  5
34
102
{ACAD_REACTORS
330
2A
102
}
330
2A
100
AcDbVisualStyle
  2
Conceptual
 70
     9
177
     2
291
     0
 71
     3
176
     1
 72
     2
176
     1
 73
     0
176
     1
 90
        0
176
     1
 40
-0.6
176
     1
 41
-30.0
176
     1
 62
     5
 63
     7
421
 16777215
176
     1
 74
     2
176
     1
 91
        2
176
     1
 64
     7
176
     1
 65
   257
176
     1
 75
     1
176
     1
175
     1
176
     1
 42
40.0
176
     1
 92
        8
176
     1
 66
     7
176
     1
 43
1.0
176
     1
 76
     1
176
     1
 77
     6
176
     1
 78
     2
176
     1
 67
     7
176
     1
 79
     3
176
     1
170
     0
176
     1
171
     0
176
     1
290
     0
176
     1
 93
        1
176
     1
 44
0.0
176
     1
173
     0
176
     1
  0
VISUALSTYLE
  5
35
102
{ACAD_REACTORS
330
2A
102
}
330
2A
100
AcDbVisualStyle
  2
Dim
 70
    11
177
     2
291
     1
 71
     2
176
     1
 72
     2
176
     1
 73
     0
176
     1
 90
        0
176
     1
 40
-0.6
176
     1
 41
-30.0
176
     1
 62
     5
 63
     7
421
 16777215
176
     1
 74
     1
176
     1
 91
        4
176
     1
 64
     7
176
     1
 65
   257
176
     1
 75
     1
176
     1
175
     1
176
     1
 42
1.0
176
     1
 92
        8
176
     1
 66
     7
176
     1
 43
1.0
176
     1
 76
     1
176
     1
 77
     6
176
     1
 78
     2
176
     1
 67
     7
176
     1
 79
     5
176
     1
170
     0
176
     1
171
     0
176
     1
290
     0
176
     1
 93
        1
176
     1
 44
-50.0
176
     1
173
     0
176
     1
  0
VISUALSTYLE
  5
39
102
{ACAD_REACTORS
330
2A
102
}
330
2A
100
AcDbVisualStyle
  2
Facepattern
 70
    15
177
     2
291
     1
 71
     2
176
     1
 72
     2
176
     1
 73
     0
176
     1
 90
        0
176
     1
 40
-0.6
176
     1
 41
-30.0
176
     1
 62
     5
 63
     7
421
 16777215
176
     1
 74
     1
176
     1
 91
        4
176
     1
 64
     7
176
     1
 65
   257
176
     1
 75
     1
176
     1
175
     1
176
     1
 42
1.0
176
     1
 92
        8
176
     1
 66
     7
176
     1
 43
1.0
176
     1
 76
     1
176
     1
 77
     6
176
     1
 78
     2
176
     1
 67
     7
176
     1
 79
     5
176
     1
170
     0
176
     1
171
     0
176
     1
290
     0
176
     1
 93
        1
176
     1
 44
0.0
176
     1
173
     0
176
     1
  0
VISUALSTYLE
  5
2B
102
{ACAD_REACTORS
330
2A
102
}
330
2A
100
AcDbVisualStyle
  2
Flat
 70
     0
177
     2
291
     1
 71
     2
176
     1
 72
     1
176
     1
 73
     1
176
     1
 90
        2
176
     1
 40
-0.6
176
     1
 41
30.0
176
     1
 62
     5
 63
     7
421
 16777215
176
     1
 74
     0
176
     1
 91
        4
176
     1
 64
     7
176
     1
 65
   257
176
     1
 75
     1
176
     1
175
     1
176
     1
 42
1.0
176
     1
 92
        8
176
     1
 66
     7
176
     1
 43
1.0
176
     1
 76
     1
176
     1
 77
     6
176
     1
 78
     2
176
     1
 67
     7
176
     1
 79
     5
176
     1
170
     0
176
     1
171
     0
176
     1
290
     0
176
     1
 93
       13
176
     1
 44
0.0
176
     1
173
     0
176
     1
  0
VISUALSTYLE
  5
2C
102
{ACAD_REACTORS
330
2A
102
}
330
2A
100
AcDbVisualStyle
  2
FlatWithEdges
 70
     1
177
     2
291
     1
 71
     2
176
     1
 72
     1
176
     1
 73
     1
176
     1
 90
        2
176
     1
 40
-0.6
176
     1
 41
30.0
176
     1
 62
     5
 63
     7
421
 16777215
176
     1
 74
     1
176
     1
 91
        4
176
     1
 64
     7
176
     1
 65
   257
176
     1
 75
     1
176
     1
175
     1
176
     1
 42
1.0
176
     1
 92
        0
176
     1
 66
   257
176
     1
 43
1.0
176
     1
 76
     1
176
     1
 77
     6
176
     1
 78
     2
176
     1
 67
     7
176
     1
 79
     5
176
     1
170
     0
176
     1
171
     0
176
     1
290
     0
176
     1
 93
       13
176
     1
 44
0.0
176
     1
173
     0
176
     1
  0
VISUALSTYLE
  5
2D
102
{ACAD_REACTORS
330
2A
102
}
330
2A
100
AcDbVisualStyle
  2
Gouraud
 70
     2
177
     2
291
     1
 71
     2
176
     1
 72
     2
176
     1
 73
     1
176
     1
 90
        2
176
     1
 40
-0.6
176
     1
 41
30.0
176
     1
 62
     5
 63
     7
421
 16777215
176
     1
 74
     0
176
     1
 91
        4
176
     1
 64
     7
176
     1
 65
   257
176
     1
 75
     1
176
     1
175
     1
176
     1
 42
1.0
176
     1
 92
        0
176
     1
 66
     7
176
     1
 43
1.0
176
     1
 76
     1
176
     1
 77
     6
176
     1
 78
     2
176
     1
 67
     7
176
     1
 79
     5
176
     1
170
     0
176
     1
171
     0
176
     1
290
     0
176
     1
 93
       13
176
     1
 44
0.0
176
     1
173
     0
176
     1
  0
VISUALSTYLE
  5
2E
102
{ACAD_REACTORS
330
2A
102
}
330
2A
100
AcDbVisualStyle
  2
GouraudWithEdges
 70
     3
177
     2
291
     1
 71
     2
176
     1
 72
     2
176
     1
 73
     1
176
     1
 90
        2
176
     1
 40
-0.6
176
     1
 41
30.0
176
     1
 62
     5
 63
     7
421
 16777215
176
     1
 74
     1
176
     1
 91
        4
176
     1
 64
     7
176
     1
 65
   257
176
     1
 75
     1
176
     1
175
     1
176
     1
 42
1.0
176
     1
 92
        0
176
     1
 66
   257
176
     1
 43
1.0
176
     1
 76
     1
176
     1
 77
     6
176
     1
 78
     2
176
     1
 67
     7
176
     1
 79
     5
176
     1
170
     0
176
     1
171
     0
176
     1
290
     0
176
     1
 93
       13
176
     1
 44
0.0
176
     1
173
     0
176
     1
  0
VISUALSTYLE
  5
38
102
{ACAD_REACTORS
330
2A
102
}
330
2A
100
AcDbVisualStyle
  2
Linepattern
 70
    14
177
     2
291
     1
 71
     2
176
     1
 72
     2
176
     1
 73
     0
176
     1
 90
        0
176
     1
 40
-0.6
176
     1
 41
-30.0
176
     1
 62
     5
 63
     7
421
 16777215
176
     1
 74
     1
176
     1
 91
        4
176
     1
 64
     7
176
     1
 65
   257
176
     1
 75
     7
176
     1
175
     7
176
     1
 42
1.0
176
     1
 92
        8
176
     1
 66
     7
176
     1
 43
1.0
176
     1
 76
     1
176
     1
 77
     6
176
     1
 78
     2
176
     1
 67
     7
176
     1
 79
     5
176
     1
170
     0
176
     1
171
     0
176
     1
290
     0
176
     1
 93
        1
176
     1
 44
0.0
176
     1
173
     0
176
     1
  0
VISUALSTYLE
  5
33
102
{ACAD_REACTORS
330
2A
102
}
330
2A
100
AcDbVisualStyle
  2
Realistic
 70
     8
177
     2
291
     0
 71
     2
176
     1
 72
     2
176
     1
 73
     0
176
     1
 90
        0
176
     1
 40
-0.6
176
     1
 41
-30.0
176
     1
 62
     5
 63
     7
421
 16777215
176
     1
 74
     1
176
     1
 91
        0
176
     1
 64
     7
176
     1
 65
   257
176
     1
 75
     1
176
     1
175
     1
176
     1
 42
1.0
176
     1
 92
        8
176
     1
 66
     8
424
  7895160
176
     1
 43
1.0
176
     1
 76
     1
176
     1
 77
     6
176
     1
 78
     2
176
     1
 67
     7
176
     1
 79
     5
176
     1
170
     0
176
     1
171
     0
176
     1
290
     0
176
     1
 93
       13
176
     1
 44
0.0
176
     1
173
     0
176
     1
  0
VISUALSTYLE
  5
37
102
{ACAD_REACTORS
330
2A
102
}
330
2A
100
AcDbVisualStyle
  2
Thicken
 70
    13
177
     2
291
     1
 71
     2
176
     1
 72
     2
176
     1
 73
     0
176
     1
 90
        0
176
     1
 40
-0.6
176
     1
 41
-30.0
176
     1
 62
     5
 63
     7
421
 16777215
176
     1
 74
     1
176
     1
 91
        4
176
     1
 64
     7
176
     1
 65
   257
176
     1
 75
     1
176
     1
175
     1
176
     1
 42
1.0
176
     1
 92
       12
176
     1
 66
     7
176
     1
 43
1.0
176
     1
 76
     1
176
     1
 77
     6
176
     1
 78
     2
176
     1
 67
     7
176
     1
 79
     5
176
     1
170
     0
176
     1
171
     0
176
     1
290
     0
176
     1
 93
        1
176
     1
 44
0.0
176
     1
173
     0
176
     1
  0
ENDSEC
  0
EOF
