  0
SECTION
  2
HEADER
  9
$ACADVER
  1
AC1024
  9
$ACADMAINTVER
 70
     6
  9
$DWGCODEPAGE
  3
ANSI_1252
  9
$INSBASE
 10
0.0
 20
0.0
 30
0.0
  9
$EXTMIN
 10
1.000000000000000E+20
 20
1.000000000000000E+20
 30
1.000000000000000E+20
  9
$EXTMAX
 10
-1.000000000000000E+20
 20
-1.000000000000000E+20
 30
-1.000000000000000E+20
  9
$LIMMIN
 10
0.0
 20
0.0
  9
$LIMMAX
 10
12.0
 20
9.0
  9
$ORTHOMODE
 70
     0
  9
$REGENMODE
 70
     1
  9
$FILLMODE
 70
     1
  9
$QTEXTMODE
 70
     0
  9
$MIRRTEXT
 70
     1
  9
$LTSCALE
 40
1.0
  9
$ATTMODE
 70
     1
  9
$TEXTSIZE
 40
0.2
  9
$TRACEWID
 40
0.05
  9
$TEXTSTYLE
  7
Standard
  9
$CLAYER
  8
0
  9
$CELTYPE
  6
ByLayer
  9
$CECOLOR
 62
   256
  9
$CELTSCALE
 40
1.0
  9
$DISPSILH
 70
     0
  9
$DIMSCALE
 40
1.0
  9
$DIMASZ
 40
0.18
  9
$DIMEXO
 40
0.0625
  9
$DIMDLI
 40
0.38
  9
$DIMRND
 40
0.0
  9
$DIMDLE
 40
0.0
  9
$DIMEXE
 40
0.18
  9
$DIMTP
 40
0.0
  9
$DIMTM
 40
0.0
  9
$DIMTXT
 40
0.18
  9
$DIMCEN
 40
0.09
  9
$DIMTSZ
 40
0.0
  9
$DIMTOL
 70
     0
  9
$DIMLIM
 70
     0
  9
$DIMTIH
 70
     1
  9
$DIMTOH
 70
     1
  9
$DIMSE1
 70
     0
  9
$DIMSE2
 70
     0
  9
$DIMTAD
 70
     0
  9
$DIMZIN
 70
     0
  9
$DIMBLK
  1

  9
$DIMASO
 70
     1
  9
$DIMSHO
 70
     1
  9
$DIMPOST
  1

  9
$DIMAPOST
  1

  9
$DIMALT
 70
     0
  9
$DIMALTD
 70
     2
  9
$DIMALTF
 40
25.4
  9
$DIMLFAC
 40
1.0
  9
$DIMTOFL
 70
     0
  9
$DIMTVP
 40
0.0
  9
$DIMTIX
 70
     0
  9
$DIMSOXD
 70
     0
  9
$DIMSAH
 70
     0
  9
$DIMBLK1
  1

  9
$DIMBLK2
  1

  9
$DIMSTYLE
  2
Standard
  9
$DIMCLRD
 70
     0
  9
$DIMCLRE
 70
     0
  9
$DIMCLRT
 70
     0
  9
$DIMTFAC
 40
1.0
  9
$DIMGAP
 40
0.09
  9
$DIMJUST
 70
     0
  9
$DIMSD1
 70
     0
  9
$DIMSD2
 70
     0
  9
$DIMTOLJ
 70
     1
  9
$DIMTZIN
 70
     0
  9
$DIMALTZ
 70
     0
  9
$DIMALTTZ
 70
     0
  9
$DIMUPT
 70
     0
  9
$DIMDEC
 70
     4
  9
$DIMTDEC
 70
     4
  9
$DIMALTU
 70
     2
  9
$DIMALTTD
 70
     2
  9
$DIMTXSTY
  7
Standard
  9
$DIMAUNIT
 70
     0
  9
$DIMADEC
 70
     0
  9
$DIMALTRND
 40
0.0
  9
$DIMAZIN
 70
     0
  9
$DIMDSEP
 70
    46
  9
$DIMATFIT
 70
     3
  9
$DIMFRAC
 70
     0
  9
$DIMLDRBLK
  1

  9
$DIMLUNIT
 70
     2
  9
$DIMLWD
 70
    -2
  9
$DIMLWE
 70
    -2
  9
$DIMTMOVE
 70
     0
  9
$DIMFXL
 40
1.0
  9
$DIMFXLON
 70
     0
  9
$DIMJOGANG
 40
0.7853981633974483
  9
$DIMTFILL
 70
     0
  9
$DIMTFILLCLR
 70
     0
  9
$DIMARCSYM
 70
     0
  9
$DIMLTYPE
  6

  9
$DIMLTEX1
  6

  9
$DIMLTEX2
  6

  9
$DIMTXTDIRECTION
 70
     0
  9
$LUNITS
 70
     2
  9
$LUPREC
 70
     4
  9
$SKETCHINC
 40
0.1
  9
$FILLETRAD
 40
0.5
  9
$AUNITS
 70
     0
  9
$AUPREC
 70
     0
  9
$MENU
  1
.
  9
$ELEVATION
 40
0.0
  9
$PELEVATION
 40
0.0
  9
$THICKNESS
 40
0.0
  9
$LIMCHECK
 70
     0
  9
$CHAMFERA
 40
0.5
  9
$CHAMFERB
 40
0.5
  9
$CHAMFERC
 40
1.0
  9
$CHAMFERD
 40
0.0
  9
$SKPOLY
 70
     0
  9
$TDCREATE
 40
2458953.912278495
  9
$TDUCREATE
 40
2458954.203945162
  9
$TDUPDATE
 40
2458953.91227853
  9
$TDUUPDATE
 40
2458954.203945197
  9
$TDINDWG
 40
0.0000000116
  9
$TDUSRTIMER
 40
0.0000000116
  9
$USRTIMER
 70
     1
  9
$ANGBASE
 50
0.0
  9
$ANGDIR
 70
     0
  9
$PDMODE
 70
     0
  9
$PDSIZE
 40
0.0
  9
$PLINEWID
 40
0.0
  9
$SPLFRAME
 70
     0
  9
$SPLINETYPE
 70
     6
  9
$SPLINESEGS
 70
     8
  9
$HANDSEED
  5
49
  9
$SURFTAB1
 70
     6
  9
$SURFTAB2
 70
     6
  9
$SURFTYPE
 70
     6
  9
$SURFU
 70
     6
  9
$SURFV
 70
     6
  9
$UCSBASE
  2

  9
$UCSNAME
  2

  9
$UCSORG
 10
0.0
 20
0.0
 30
0.0
  9
$UCSXDIR
 10
1.0
 20
0.0
 30
0.0
  9
$UCSYDIR
 10
0.0
 20
1.0
 30
0.0
  9
$UCSORTHOREF
  2

  9
$UCSORTHOVIEW
 70
     0
  9
$UCSORGTOP
 10
0.0
 20
0.0
 30
0.0
  9
$UCSORGBOTTOM
 10
0.0
 20
0.0
 30
0.0
  9
$UCSORGLEFT
 10
0.0
 20
0.0
 30
0.0
  9
$UCSORGRIGHT
 10
0.0
 20
0.0
 30
0.0
  9
$UCSORGFRONT
 10
0.0
 20
0.0
 30
0.0
  9
$UCSORGBACK
 10
0.0
 20
0.0
 30
0.0
  9
$PUCSBASE
  2

  9
$PUCSNAME
  2

  9
$PUCSORG
 10
0.0
 20
0.0
 30
0.0
  9
$PUCSXDIR
 10
1.0
 20
0.0
 30
0.0
  9
$PUCSYDIR
 10
0.0
 20
1.0
 30
0.0
  9
$PUCSORTHOREF
  2

  9
$PUCSORTHOVIEW
 70
     0
  9
$PUCSORGTOP
 10
0.0
 20
0.0
 30
0.0
  9
$PUCSORGBOTTOM
 10
0.0
 20
0.0
 30
0.0
  9
$PUCSORGLEFT
 10
0.0
 20
0.0
 30
0.0
  9
$PUCSORGRIGHT
 10
0.0
 20
0.0
 30
0.0
  9
$PUCSORGFRONT
 10
0.0
 20
0.0
 30
0.0
  9
$PUCSORGBACK
 10
0.0
 20
0.0
 30
0.0
  9
$USERI1
 70
     0
  9
$USERI2
 70
     0
  9
$USERI3
 70
     0
  9
$USERI4
 70
     0
  9
$USERI5
 70
     0
  9
$USERR1
 40
0.0
  9
$USERR2
 40
0.0
  9
$USERR3
 40
0.0
  9
$USERR4
 40
0.0
  9
$USERR5
 40
0.0
  9
$WORLDVIEW
 70
     1
  9
$SHADEDGE
 70
     3
  9
$SHADEDIF
 70
    70
  9
$TILEMODE
 70
     1
  9
$MAXACTVP
 70
    64
  9
$PINSBASE
 10
0.0
 20
0.0
 30
0.0
  9
$PLIMCHECK
 70
     0
  9
$PEXTMIN
 10
1.000000000000000E+20
 20
1.000000000000000E+20
 30
1.000000000000000E+20
  9
$PEXTMAX
 10
-1.000000000000000E+20
 20
-1.000000000000000E+20
 30
-1.000000000000000E+20
  9
$PLIMMIN
 10
0.0
 20
0.0
  9
$PLIMMAX
 10
12.0
 20
9.0
  9
$UNITMODE
 70
     0
  9
$VISRETAIN
 70
     1
  9
$PLINEGEN
 70
     0
  9
$PSLTSCALE
 70
     1
  9
$TREEDEPTH
 70
  3020
  9
$CMLSTYLE
  2
Standard
  9
$CMLJUST
 70
     0
  9
$CMLSCALE
 40
1.0
  9
$PROXYGRAPHICS
 70
     1
  9
$MEASUREMENT
 70
     0
  9
$CELWEIGHT
370
    -1
  9
$ENDCAPS
280
     0
  9
$JOINSTYLE
280
     0
  9
$LWDISPLAY
290
     1
  9
$INSUNITS
 70
     1
  9
$HYPERLINKBASE
  1

  9
$STYLESHEET
  1

  9
$XEDIT
290
     1
  9
$CEPSNTYPE
380
     0
  9
$PSTYLEMODE
290
     1
  9
$FINGERPRINTGUID
  2
{3BED27F6-9A5D-49CD-8350-43524F08AD1E}
  9
$VERSIONGUID
  2
{FAEB1C32-E019-11D5-929B-00C0DF256EC4}
  9
$EXTNAMES
290
     1
  9
$PSVPSCALE
 40
0.0
  9
$OLESTARTUP
290
     0
  9
$SORTENTS
280
   127
  9
$INDEXCTL
280
     0
  9
$HIDETEXT
280
     1
  9
$XCLIPFRAME
280
     2
  9
$HALOGAP
280
     0
  9
$OBSCOLOR
 70
   257
  9
$OBSLTYPE
280
     0
  9
$INTERSECTIONDISPLAY
280
     0
  9
$INTERSECTIONCOLOR
 70
   257
  9
$DIMASSOC
280
     2
  9
$PROJECTNAME
  1

  9
$CAMERADISPLAY
290
     0
  9
$LENSLENGTH
 40
50.0
  9
$CAMERAHEIGHT
 40
0.0
  9
$STEPSPERSEC
 40
2.0
  9
$STEPSIZE
 40
6.0
  9
$3DDWFPREC
 40
2.0
  9
$PSOLWIDTH
 40
0.25
  9
$PSOLHEIGHT
 40
4.0
  9
$LOFTANG1
 40
1.570796326794897
  9
$LOFTANG2
 40
1.570796326794897
  9
$LOFTMAG1
 40
0.0
  9
$LOFTMAG2
 40
0.0
  9
$LOFTPARAM
 70
     7
  9
$LOFTNORMALS
280
     1
  9
$LATITUDE
 40
37.795
  9
$LONGITUDE
 40
-122.394
  9
$NORTHDIRECTION
 40
0.0
  9
$TIMEZONE
 70
 -8000
  9
$LIGHTGLYPHDISPLAY
280
     1
  9
$TILEMODELIGHTSYNCH
280
     1
  9
$CMATERIAL
347
3C
  9
$SOLIDHIST
280
     1
  9
$SHOWHIST
280
     1
  9
$DWFFRAME
280
     2
  9
$DGNFRAME
280
     2
  9
$REALWORLDSCALE
290
     1
  9
$INTERFERECOLOR
 62
   256
  9
$CSHADOW
280
     0
  9
$SHADOWPLANELOCATION
 40
0.0
  0
ENDSEC
  0
SECTION
  2
CLASSES
  0
CLASS
  1
ACDBDICTIONARYWDFLT
  2
AcDbDictionaryWithDefault
  3
ObjectDBX Classes
 90
        0
 91
        4
280
     0
281
     0
  0
CLASS
  1
VISUALSTYLE
  2
AcDbVisualStyle
  3
ObjectDBX Classes
 90
     4095
 91
        4
280
     0
281
     0
  0
CLASS
  1
MATERIAL
  2
AcDbMaterial
  3
ObjectDBX Classes
 90
     1153
 91
        4
280
     0
281
     0
  0
CLASS
  1
SUN
  2
AcDbSun
  3
SCENEOE
 90
     1024
 91
        4
280
     0
281
     0
  0
ENDSEC
  0
SECTION
  2
TABLES
  0
TABLE
  2
VPORT
  5
8
330
0
100
AcDbSymbolTable
 70
     1
  0
VPORT
  5
29
330
8
100
AcDbSymbolTableRecord
100
AcDbViewportTableRecord
  2
*Active
 70
     0
 10
0.0
 20
0.0
 11
1.0
 21
1.0
 12
0.0
 22
0.0
 13
0.0
 23
0.0
 14
0.5
 24
0.5
 15
0.5
 25
0.5
 16
0.0
 26
0.0
 36
1.0
 17
13.33333333333333
 27
-7.5
 37
0.0
 40
15.0
 41
1.777777777777778
 42
50.0
 43
0.0
 44
0.0
 50
0.0
 51
0.0
 71
     0
 72
   100
 73
     1
 74
     3
 75
     0
 76
     0
 77
     0
 78
     0
281
     0
 65
     1
110
0.0
120
0.0
130
0.0
111
1.0
121
0.0
131
0.0
112
0.0
122
1.0
132
0.0
 79
     0
146
0.0
 60
     3
 61
     5
292
     1
282
     1
141
0.0
142
0.0
 63
   250
361
3F
  0
ENDTAB
  0
TABLE
  2
LTYPE
  5
5
330
0
100
AcDbSymbolTable
 70
     1
  0
LTYPE
  5
14
330
5
100
AcDbSymbolTableRecord
100
AcDbLinetypeTableRecord
  2
ByBlock
 70
     0
  3

 72
    65
 73
     0
 40
0.0
  0
LTYPE
  5
15
330
5
100
AcDbSymbolTableRecord
100
AcDbLinetypeTableRecord
  2
ByLayer
 70
     0
  3

 72
    65
 73
     0
 40
0.0
  0
LTYPE
  5
16
330
5
100
AcDbSymbolTableRecord
100
AcDbLinetypeTableRecord
  2
Continuous
 70
     0
  3
Solid line
 72
    65
 73
     0
 40
0.0
  0
ENDTAB
  0
TABLE
  2
LAYER
  5
2
330
0
100
AcDbSymbolTable
 70
     2
  0
LAYER
  5
10
330
2
100
AcDbSymbolTableRecord
100
AcDbLayerTableRecord
  2
0
 70
     0
 62
     7
  6
Continuous
370
    -3
390
F
347
3E
  0
LAYER
  5
40
330
2
100
AcDbSymbolTableRecord
100
AcDbLayerTableRecord
  2
Layer 1
 70
     0
 62
     7
  6
Continuous
370
    -3
390
F
347
3E
  0
ENDTAB
  0
TABLE
  2
STYLE
  5
3
330
0
100
AcDbSymbolTable
 70
     1
  0
STYLE
  5
11
330
3
100
AcDbSymbolTableRecord
100
AcDbTextStyleTableRecord
  2
Standard
 70
     0
 40
0.0
 41
1.0
 50
0.0
 71
     0
 42
0.2
  3
txt
  4

  0
ENDTAB
  0
TABLE
  2
VIEW
  5
6
330
0
100
AcDbSymbolTable
 70
     0
  0
ENDTAB
  0
TABLE
  2
UCS
  5
7
330
0
100
AcDbSymbolTable
 70
     0
  0
ENDTAB
  0
TABLE
  2
APPID
  5
9
330
0
100
AcDbSymbolTable
 70
     1
  0
APPID
  5
12
330
9
100
AcDbSymbolTableRecord
100
AcDbRegAppTableRecord
  2
ACAD
 70
     0
  0
ENDTAB
  0
TABLE
  2
DIMSTYLE
  5
A
330
0
100
AcDbSymbolTable
 70
     1
100
AcDbDimStyleTable
  0
DIMSTYLE
105
27
330
A
100
AcDbSymbolTableRecord
100
AcDbDimStyleTableRecord
  2
Standard
 70
     0
178
     0
340
11
  0
ENDTAB
  0
TABLE
  2
BLOCK_RECORD
  5
1
330
0
100
AcDbSymbolTable
 70
     2
  0
BLOCK_RECORD
  5
1F
330
1
100
AcDbSymbolTableRecord
100
AcDbBlockTableRecord
  2
*Model_Space
340
22
 70
     0
280
     1
281
     0
  0
BLOCK_RECORD
  5
1B
330
1
100
AcDbSymbolTableRecord
100
AcDbBlockTableRecord
  2
*Paper_Space
340
1E
 70
     0
280
     1
281
     0
  0
BLOCK_RECORD
  5
23
330
1
100
AcDbSymbolTableRecord
100
AcDbBlockTableRecord
  2
*Paper_Space0
340
26
 70
     0
280
     1
281
     0
  0
BLOCK_RECORD
  5
41
330
1
100
AcDbSymbolTableRecord
100
AcDbBlockTableRecord
  2
block 2
340
0
102
{BLKREFS
331
42
102
}
 70
     0
280
     1
281
     0
  0
ENDTAB
  0
ENDSEC
  0
SECTION
  2
BLOCKS
  0
BLOCK
  5
20
330
1F
100
AcDbEntity
  8
0
100
AcDbBlockBegin
  2
*Model_Space
 70
     0
 10
0.0
 20
0.0
 30
0.0
  3
*Model_Space
  1

  0
ENDBLK
  5
21
330
1F
100
AcDbEntity
  8
0
100
AcDbBlockEnd
  0
BLOCK
  5
1C
330
1B
100
AcDbEntity
 67
     1
  8
0
100
AcDbBlockBegin
  2
*Paper_Space
 70
     0
 10
0.0
 20
0.0
 30
0.0
  3
*Paper_Space
  1

  0
ENDBLK
  5
1D
330
1B
100
AcDbEntity
 67
     1
  8
0
100
AcDbBlockEnd
  0
BLOCK
  5
24
330
23
100
AcDbEntity
  8
0
100
AcDbBlockBegin
  2
*Paper_Space0
 70
     0
 10
0.0
 20
0.0
 30
0.0
  3
*Paper_Space0
  1

  0
ENDBLK
  5
25
330
23
100
AcDbEntity
  8
0
100
AcDbBlockEnd
  0
BLOCK
  5
43
330
41
100
AcDbEntity
  8
0
100
AcDbBlockBegin
  2
block 2
 70
     0
 10
0.0
 20
0.0
 30
0.0
  3
block 2
  1

  0
SPLINE
  5
45
330
41
100
AcDbEntity
  8
Layer 1
 62
    18
420
   131072
370
    35
100
AcDbSpline
210
0.0
220
0.0
230
1.0
 70
    11
 71
     3
 72
   176
 73
   172
 74
     0
 42
0.0000000001
 43
0.0000000001
 12
1.0
 22
0.0
 32
0.0
 13
1.0
 23
0.0
 33
0.0
 40
0.0
 40
0.0
 40
0.0
 40
0.0
 40
1.0
 40
1.0
 40
1.0
 40
2.0
 40
2.0
 40
2.0
 40
3.0
 40
3.0
 40
3.0
 40
4.0
 40
4.0
 40
4.0
 40
5.0
 40
5.0
 40
5.0
 40
6.0
 40
6.0
 40
6.0
 40
7.0
 40
7.0
 40
7.0
 40
8.0
 40
8.0
 40
8.0
 40
9.0
 40
9.0
 40
9.0
 40
10.0
 40
10.0
 40
10.0
 40
11.0
 40
11.0
 40
11.0
 40
12.0
 40
12.0
 40
12.0
 40
13.0
 40
13.0
 40
13.0
 40
14.0
 40
14.0
 40
14.0
 40
15.0
 40
15.0
 40
15.0
 40
16.0
 40
16.0
 40
16.0
 40
17.0
 40
17.0
 40
17.0
 40
18.0
 40
18.0
 40
18.0
 40
19.0
 40
19.0
 40
19.0
 40
20.0
 40
20.0
 40
20.0
 40
21.0
 40
21.0
 40
21.0
 40
22.0
 40
22.0
 40
22.0
 40
23.0
 40
23.0
 40
23.0
 40
24.0
 40
24.0
 40
24.0
 40
25.0
 40
25.0
 40
25.0
 40
26.0
 40
26.0
 40
26.0
 40
27.0
 40
27.0
 40
27.0
 40
28.0
 40
28.0
 40
28.0
 40
29.0
 40
29.0
 40
29.0
 40
30.0
 40
30.0
 40
30.0
 40
31.0
 40
31.0
 40
31.0
 40
32.0
 40
32.0
 40
32.0
 40
33.0
 40
33.0
 40
33.0
 40
34.0
 40
34.0
 40
34.0
 40
35.0
 40
35.0
 40
35.0
 40
36.0
 40
36.0
 40
36.0
 40
37.0
 40
37.0
 40
37.0
 40
38.0
 40
38.0
 40
38.0
 40
39.0
 40
39.0
 40
39.0
 40
40.0
 40
40.0
 40
40.0
 40
41.0
 40
41.0
 40
41.0
 40
42.0
 40
42.0
 40
42.0
 40
43.0
 40
43.0
 40
43.0
 40
44.0
 40
44.0
 40
44.0
 40
45.0
 40
45.0
 40
45.0
 40
46.0
 40
46.0
 40
46.0
 40
47.0
 40
47.0
 40
47.0
 40
48.0
 40
48.0
 40
48.0
 40
49.0
 40
49.0
 40
49.0
 40
50.0
 40
50.0
 40
50.0
 40
51.0
 40
51.0
 40
51.0
 40
52.0
 40
52.0
 40
52.0
 40
53.0
 40
53.0
 40
53.0
 40
54.0
 40
54.0
 40
54.0
 40
55.0
 40
55.0
 40
55.0
 40
56.0
 40
56.0
 40
56.0
 40
57.0
 40
57.0
 40
57.0
 40
57.0
 10
3.025921704558249
 20
-8.433284350860351
 30
0.0
 10
3.021079710612715
 20
-8.435070006469585
 30
0.0
 10
3.016237707708797
 20
-8.4368559487469
 30
0.0
 10
3.011395704804853
 20
-8.43864189102424
 30
0.0
 10
3.029445930168625
 20
-8.486505430724163
 30
0.0
 10
3.034487006131801
 20
-8.560784002710205
 30
0.0
 10
3.067984725766514
 20
-8.57728146532928
 30
0.0
 10
3.168609250314615
 20
-8.626838066841376
 30
0.0
 10
3.283818210110907
 20
-8.690477238878833
 30
0.0
 10
3.386871547815935
 20
-8.68067204310786
 30
0.0
 10
3.524884451072163
 20
-8.667540350677857
 30
0.0
 10
3.660433728917446
 20
-8.59923708861609
 30
0.0
 10
3.760096392500145
 20
-8.484147872250862
 30
0.0
 10
3.831615203111419
 20
-8.401558505311135
 30
0.0
 10
3.9106078803623
 20
-8.325484531000383
 30
0.0
 10
3.984974451601033
 20
-8.24530546946476
 30
0.0
 10
4.054738423609428
 20
-8.170088632779905
 30
0.0
 10
4.119535512935032
 20
-8.089979231593109
 30
0.0
 10
4.192490243919047
 20
-8.018082728203101
 30
0.0
 10
4.274213721223999
 20
-7.937545331539568
 30
0.0
 10
4.334750707998384
 20
-7.819416429951666
 30
0.0
 10
4.481476313967416
 20
-7.841343529762272
 30
0.0
 10
4.536686434627565
 20
-7.849594267748519
 30
0.0
 10
4.593447286223282
 20
-7.847214062495166
 30
0.0
 10
4.64883944110914
 20
-7.854625866280028
 30
0.0
 10
4.67163256284933
 20
-7.857675871554394
 30
0.0
 10
4.693170078434087
 20
-7.872839467493501
 30
0.0
 10
4.714437409360938
 20
-7.884084453808251
 30
0.0
 10
4.800382360694408
 20
-7.929527224718337
 30
0.0
 10
4.881500538365294
 20
-7.998473053331432
 30
0.0
 10
4.972723765574806
 20
-8.016407726481374
 30
0.0
 10
5.135981949259253
 20
-8.04850466388906
 30
0.0
 10
5.305086728272499
 20
-8.052641284605164
 30
0.0
 10
5.472078046924808
 20
-8.06327552452798
 30
0.0
 10
5.565119036378986
 20
-8.069200667534307
 30
0.0
 10
5.65882652910059
 20
-8.064771645353883
 30
0.0
 10
5.75223359368273
 20
-8.064803465513199
 30
0.0
 10
5.839205820052269
 20
-8.064832992327739
 30
0.0
 10
5.926759122603812
 20
-8.075749026995101
 30
0.0
 10
5.992890866805724
 20
-7.992680064320211
 30
0.0
 10
6.007557092038243
 20
-7.974257625394203
 30
0.0
 10
6.060363644248532
 20
-7.986531176859999
 30
0.0
 10
6.095565623488128
 20
-7.984057517805265
 30
0.0
 10
6.17812688823354
 20
-7.978256215419125
 30
0.0
 10
6.26368756101648
 20
-7.98366076915171
 30
0.0
 10
6.342428973702276
 20
-7.963081582758099
 30
0.0
 10
6.437319832225171
 20
-7.938281925228416
 30
0.0
 10
6.525582064918808
 20
-7.888994505064375
 30
0.0
 10
6.618559127392914
 20
-7.855416783574279
 30
0.0
 10
6.643766137633494
 20
-7.846313494651794
 30
0.0
 10
6.675633880527471
 20
-7.855652854756499
 30
0.0
 10
6.704444308433367
 20
-7.856527335802562
 30
0.0
 10
6.700930617874658
 20
-7.886132554065094
 30
0.0
 10
6.698676260156276
 20
-7.915969686822361
 30
0.0
 10
6.693283747053556
 20
-7.945228466683274
 30
0.0
 10
6.691124276467045
 20
-7.956946598700849
 30
0.0
 10
6.68143575563704
 20
-7.967106402914346
 30
0.0
 10
6.676225850096178
 20
-7.97845831643119
 30
0.0
 10
6.594864864568308
 20
-8.155738027578915
 30
0.0
 10
6.43050458548099
 20
-8.28942311707197
 30
0.0
 10
6.404483151247771
 20
-8.496254152878969
 30
0.0
 10
6.402378147594946
 20
-8.512986683341927
 30
0.0
 10
6.387265293506251
 20
-8.529914434782489
 30
0.0
 10
6.374489070872515
 20
-8.543180001216266
 30
0.0
 10
6.279398691371524
 20
-8.641913369004946
 30
0.0
 10
6.186233861310206
 20
-8.74276148738429
 30
0.0
 10
6.086866680842755
 20
-8.837046339561539
 30
0.0
 10
5.978287135212932
 20
-8.940072562182069
 30
0.0
 10
5.862958563163539
 20
-9.035957882374431
 30
0.0
 10
5.752525421780029
 20
-9.137089228838805
 30
0.0
 10
5.736000440768572
 20
-9.152222151290944
 30
0.0
 10
5.726312206606647
 20
-9.178240148255401
 30
0.0
 10
5.721775971035009
 20
-9.200888075009212
 30
0.0
 10
5.720474211320038
 20
-9.207387414224486
 30
0.0
 10
5.748625589328311
 20
-9.228478446514751
 30
0.0
 10
5.762750871908931
 20
-9.227983657370208
 30
0.0
 10
5.864534090887383
 20
-9.224416646173317
 30
0.0
 10
5.96915159709383
 20
-9.23029219559799
 30
0.0
 10
6.067316491667295
 20
-9.208339152324141
 30
0.0
 10
6.358907227817983
 20
-9.143129612422298
 30
0.0
 10
6.602400794845519
 20
-8.970916616648688
 30
0.0
 10
6.86431364550439
 20
-8.838193011970715
 30
0.0
 10
7.170050304336958
 20
-8.683262662748296
 30
0.0
 10
7.395303181942015
 20
-8.446961572689032
 30
0.0
 10
7.598874206588081
 20
-8.182382394346835
 30
0.0
 10
7.667471009541132
 20
-8.093227754528318
 30
0.0
 10
7.732677962542842
 20
-8.001444654879833
 30
0.0
 10
7.802231663520375
 20
-7.913064018937474
 30
0.0
 10
7.815550262146391
 20
-7.89613942084601
 30
0.0
 10
7.841962138293613
 20
-7.889518391021308
 30
0.0
 10
7.862333344827485
 20
-7.878143830724361
 30
0.0
 10
7.87134160232242
 20
-7.902054387134714
 30
0.0
 10
7.888697060738486
 20
-7.926232834886731
 30
0.0
 10
7.887940257028541
 20
-7.94983006306135
 30
0.0
 10
7.88428753245479
 20
-8.063622679599852
 30
0.0
 10
7.874836086120391
 20
-8.17721319512624
 30
0.0
 10
7.869193885126858
 20
-8.2909622381132
 30
0.0
 10
7.862625746260808
 20
-8.423382834607057
 30
0.0
 10
7.856539209755788
 20
-8.555863631402392
 30
0.0
 10
7.853517154940568
 20
-8.688392875107006
 30
0.0
 10
7.852944392132763
 20
-8.713549721092173
 30
0.0
 10
7.867644730865663
 20
-8.739054582153459
 30
0.0
 10
7.875297621716324
 20
-8.76439919574563
 30
0.0
 10
7.901272042385838
 20
-8.752513076220087
 30
0.0
 10
7.93974461765894
 20
-8.747786205881336
 30
0.0
 10
7.951287594246891
 20
-8.727633724957993
 30
0.0
 10
8.06729241627809
 20
-8.525105004030289
 30
0.0
 10
8.192288869056231
 20
-8.32611778083838
 30
0.0
 10
8.288269352920894
 20
-8.114141339263293
 30
0.0
 10
8.405194379463257
 20
-7.855909279374044
 30
0.0
 10
8.50186229336474
 20
-7.5880093377348
 30
0.0
 10
8.59738869500336
 20
-7.320751389310695
 30
0.0
 10
8.66566557638805
 20
-7.129732249356139
 30
0.0
 10
8.679277149783628
 20
-6.939406559541061
 30
0.0
 10
8.507537174518461
 20
-6.784613381005619
 30
0.0
 10
8.454747822392315
 20
-6.737033141057799
 30
0.0
 10
8.474663800027706
 20
-6.706270285331167
 30
0.0
 10
8.529507415557772
 20
-6.680296506921498
 30
0.0
 10
8.627328881780954
 20
-6.633969006580665
 30
0.0
 10
8.715243099435206
 20
-6.577066033278053
 30
0.0
 10
8.758324723970304
 20
-6.469646621989782
 30
0.0
 10
8.76705262009101
 20
-6.447883783001783
 30
0.0
 10
8.787415226582551
 20
-6.427740833792856
 30
0.0
 10
8.807345537621623
 20
-6.414011438369559
 30
0.0
 10
8.936077275378175
 20
-6.325332739267853
 30
0.0
 10
8.966221569823055
 20
-6.184179623208339
 30
0.0
 10
8.992924700731539
 20
-6.04741009243508
 30
0.0
 10
9.020632316564463
 20
-5.905494439223465
 30
0.0
 10
8.967344161993031
 20
-5.824993503159249
 30
0.0
 10
8.826290857165025
 20
-5.788232547394196
 30
0.0
 10
8.628406180395636
 20
-5.736660489955359
 30
0.0
 10
8.428177705469313
 20
-5.75543656981904
 30
0.0
 10
8.239981262861862
 20
-5.8268444115952
 30
0.0
 10
8.124991245805454
 20
-5.870475619266345
 30
0.0
 10
8.014237036181385
 20
-5.937712368487066
 30
0.0
 10
7.918257698988959
 20
-6.015045622020921
 30
0.0
 10
7.842252819718674
 20
-6.076284808705913
 30
0.0
 10
7.786065877603126
 20
-6.076070882634617
 30
0.0
 10
7.709763436874128
 20
-6.030662261062174
 30
0.0
 10
7.503777520389437
 20
-5.908076422987316
 30
0.0
 10
7.274680710606667
 20
-5.831965325157322
 30
0.0
 10
7.04020686779706
 20
-5.853387459105735
 30
0.0
 10
6.709175764962019
 20
-5.883631302233172
 30
0.0
 10
6.379588609205661
 20
-5.94455343399703
 30
0.0
 10
6.053750785163212
 20
-6.013114303182255
 30
0.0
 10
5.615236068737608
 20
-6.105384165268434
 30
0.0
 10
5.207857518286144
 20
-6.287378169191899
 30
0.0
 10
4.830274673904114
 20
-6.524422016304192
 30
0.0
 10
4.585225072581655
 20
-6.678262310067604
 30
0.0
 10
4.351764458072643
 20
-6.855283231585922
 30
0.0
 10
4.133671975570476
 20
-7.045492677485527
 30
0.0
 10
4.011535610146804
 20
-7.152014100943347
 30
0.0
 10
3.906460366696352
 20
-7.269995511792608
 30
0.0
 10
3.750879583982674
 20
-7.334724739289022
 30
0.0
 10
3.596098820190946
 20
-7.399121001784642
 30
0.0
 10
3.597684381297275
 20
-7.409303309444162
 30
0.0
 10
3.664347679771708
 20
-7.569701996051864
 30
0.0
 10
3.692493754420702
 20
-7.637424038536285
 30
0.0
 10
3.678770738812166
 20
-7.66523872783187
 30
0.0
 10
3.608188902794255
 20
-7.693755180641851
 30
0.0
 10
3.458108886214
 20
-7.754390930971542
 30
0.0
 10
3.312781539599718
 20
-7.82728976938122
 30
0.0
 10
3.167981572654172
 20
-7.900085980610306
 30
0.0
 10
3.137887749706616
 20
-7.915215033043093
 30
0.0
 10
3.111561372311775
 20
-7.948112347792403
 30
0.0
 10
3.095632177137721
 20
-7.979065192803773
 30
0.0
 10
3.059232803278064
 20
-8.049794957017461
 30
0.0
 10
3.014393500334462
 20
-8.121980565188677
 30
0.0
 10
3.002902276291946
 20
-8.198092379688912
 30
0.0
 10
2.991500716647377
 20
-8.273609644544978
 30
0.0
 10
3.016747609583502
 20
-8.35466017711163
 30
0.0
 10
3.025921704558249
 20
-8.433284350860351
 30
0.0
  0
SPLINE
  5
46
330
41
100
AcDbEntity
  8
Layer 1
 62
    18
420
   131072
370
    35
100
AcDbSpline
210
0.0
220
0.0
230
1.0
 70
    11
 71
     3
 72
   176
 73
   172
 74
     0
 42
0.0000000001
 43
0.0000000001
 12
1.0
 22
0.0
 32
0.0
 13
1.0
 23
0.0
 33
0.0
 40
0.0
 40
0.0
 40
0.0
 40
0.0
 40
1.0
 40
1.0
 40
1.0
 40
2.0
 40
2.0
 40
2.0
 40
3.0
 40
3.0
 40
3.0
 40
4.0
 40
4.0
 40
4.0
 40
5.0
 40
5.0
 40
5.0
 40
6.0
 40
6.0
 40
6.0
 40
7.0
 40
7.0
 40
7.0
 40
8.0
 40
8.0
 40
8.0
 40
9.0
 40
9.0
 40
9.0
 40
10.0
 40
10.0
 40
10.0
 40
11.0
 40
11.0
 40
11.0
 40
12.0
 40
12.0
 40
12.0
 40
13.0
 40
13.0
 40
13.0
 40
14.0
 40
14.0
 40
14.0
 40
15.0
 40
15.0
 40
15.0
 40
16.0
 40
16.0
 40
16.0
 40
17.0
 40
17.0
 40
17.0
 40
18.0
 40
18.0
 40
18.0
 40
19.0
 40
19.0
 40
19.0
 40
20.0
 40
20.0
 40
20.0
 40
21.0
 40
21.0
 40
21.0
 40
22.0
 40
22.0
 40
22.0
 40
23.0
 40
23.0
 40
23.0
 40
24.0
 40
24.0
 40
24.0
 40
25.0
 40
25.0
 40
25.0
 40
26.0
 40
26.0
 40
26.0
 40
27.0
 40
27.0
 40
27.0
 40
28.0
 40
28.0
 40
28.0
 40
29.0
 40
29.0
 40
29.0
 40
30.0
 40
30.0
 40
30.0
 40
31.0
 40
31.0
 40
31.0
 40
32.0
 40
32.0
 40
32.0
 40
33.0
 40
33.0
 40
33.0
 40
34.0
 40
34.0
 40
34.0
 40
35.0
 40
35.0
 40
35.0
 40
36.0
 40
36.0
 40
36.0
 40
37.0
 40
37.0
 40
37.0
 40
38.0
 40
38.0
 40
38.0
 40
39.0
 40
39.0
 40
39.0
 40
40.0
 40
40.0
 40
40.0
 40
41.0
 40
41.0
 40
41.0
 40
42.0
 40
42.0
 40
42.0
 40
43.0
 40
43.0
 40
43.0
 40
44.0
 40
44.0
 40
44.0
 40
45.0
 40
45.0
 40
45.0
 40
46.0
 40
46.0
 40
46.0
 40
47.0
 40
47.0
 40
47.0
 40
48.0
 40
48.0
 40
48.0
 40
49.0
 40
49.0
 40
49.0
 40
50.0
 40
50.0
 40
50.0
 40
51.0
 40
51.0
 40
51.0
 40
52.0
 40
52.0
 40
52.0
 40
53.0
 40
53.0
 40
53.0
 40
54.0
 40
54.0
 40
54.0
 40
55.0
 40
55.0
 40
55.0
 40
56.0
 40
56.0
 40
56.0
 40
57.0
 40
57.0
 40
57.0
 40
57.0
 10
3.025921704558249
 20
-8.433284350860351
 30
0.0
 10
3.016747609583502
 20
-8.35466017711163
 30
0.0
 10
2.991500716647377
 20
-8.273609644544978
 30
0.0
 10
3.002902276291946
 20
-8.198092379688912
 30
0.0
 10
3.014393500334462
 20
-8.121980565188677
 30
0.0
 10
3.059232803278064
 20
-8.049794957017461
 30
0.0
 10
3.095632177137721
 20
-7.979065192803773
 30
0.0
 10
3.111561372311775
 20
-7.948112347792403
 30
0.0
 10
3.137887749706616
 20
-7.915215033043093
 30
0.0
 10
3.167981572654172
 20
-7.900085980610306
 30
0.0
 10
3.312781539599718
 20
-7.82728976938122
 30
0.0
 10
3.458108886214
 20
-7.754390930971542
 30
0.0
 10
3.608188902794255
 20
-7.693755180641851
 30
0.0
 10
3.678770738812166
 20
-7.66523872783187
 30
0.0
 10
3.692493754420702
 20
-7.637424038536285
 30
0.0
 10
3.664347679771708
 20
-7.569701996051864
 30
0.0
 10
3.597684381297275
 20
-7.409303309444162
 30
0.0
 10
3.596098820190946
 20
-7.399121001784642
 30
0.0
 10
3.750879583982674
 20
-7.334724739289022
 30
0.0
 10
3.906460366696352
 20
-7.269995511792608
 30
0.0
 10
4.011535610146804
 20
-7.152014100943347
 30
0.0
 10
4.133671975570476
 20
-7.045492677485527
 30
0.0
 10
4.351764458072643
 20
-6.855283231585922
 30
0.0
 10
4.585225072581655
 20
-6.678262310067604
 30
0.0
 10
4.830274673904114
 20
-6.524422016304192
 30
0.0
 10
5.207857518286144
 20
-6.287378169191899
 30
0.0
 10
5.615236068737608
 20
-6.105384165268434
 30
0.0
 10
6.053750785163212
 20
-6.013114303182255
 30
0.0
 10
6.379588609205661
 20
-5.94455343399703
 30
0.0
 10
6.709175764962019
 20
-5.883631302233172
 30
0.0
 10
7.04020686779706
 20
-5.853387459105735
 30
0.0
 10
7.274680710606667
 20
-5.831965325157322
 30
0.0
 10
7.503777520389437
 20
-5.908076422987316
 30
0.0
 10
7.709763436874128
 20
-6.030662261062174
 30
0.0
 10
7.786065877603126
 20
-6.076070882634617
 30
0.0
 10
7.842252819718674
 20
-6.076284808705913
 30
0.0
 10
7.918257698988959
 20
-6.015045622020921
 30
0.0
 10
8.014237036181385
 20
-5.937712368487066
 30
0.0
 10
8.124991245805454
 20
-5.870475619266345
 30
0.0
 10
8.239981262861862
 20
-5.8268444115952
 30
0.0
 10
8.428177705469313
 20
-5.75543656981904
 30
0.0
 10
8.628406180395636
 20
-5.736660489955359
 30
0.0
 10
8.826290857165025
 20
-5.788232547394196
 30
0.0
 10
8.967344161993031
 20
-5.824993503159249
 30
0.0
 10
9.020632316564463
 20
-5.905494439223465
 30
0.0
 10
8.992924700731539
 20
-6.04741009243508
 30
0.0
 10
8.966221569823055
 20
-6.184179623208339
 30
0.0
 10
8.936077275378175
 20
-6.325332739267853
 30
0.0
 10
8.807345537621623
 20
-6.414011438369559
 30
0.0
 10
8.787415226582551
 20
-6.427740833792856
 30
0.0
 10
8.76705262009101
 20
-6.447883783001783
 30
0.0
 10
8.758324723970304
 20
-6.469646621989782
 30
0.0
 10
8.715243099435206
 20
-6.577066033278053
 30
0.0
 10
8.627328881780954
 20
-6.633969006580665
 30
0.0
 10
8.529507415557772
 20
-6.680296506921498
 30
0.0
 10
8.474663800027706
 20
-6.706270285331167
 30
0.0
 10
8.454747822392315
 20
-6.737033141057799
 30
0.0
 10
8.507537174518461
 20
-6.784613381005619
 30
0.0
 10
8.679277149783628
 20
-6.939406559541061
 30
0.0
 10
8.66566557638805
 20
-7.129732249356139
 30
0.0
 10
8.59738869500336
 20
-7.320751389310695
 30
0.0
 10
8.50186229336474
 20
-7.5880093377348
 30
0.0
 10
8.405194379463257
 20
-7.855909279374044
 30
0.0
 10
8.288269352920894
 20
-8.114141339263293
 30
0.0
 10
8.192288869056231
 20
-8.32611778083838
 30
0.0
 10
8.06729241627809
 20
-8.525105004030289
 30
0.0
 10
7.951287594246891
 20
-8.727633724957993
 30
0.0
 10
7.93974461765894
 20
-8.747786205881336
 30
0.0
 10
7.901272042385838
 20
-8.752513076220087
 30
0.0
 10
7.875297621716324
 20
-8.76439919574563
 30
0.0
 10
7.867644730865663
 20
-8.739054582153459
 30
0.0
 10
7.852944392132763
 20
-8.713549721092173
 30
0.0
 10
7.853517154940568
 20
-8.688392875107006
 30
0.0
 10
7.856539209755788
 20
-8.555863631402392
 30
0.0
 10
7.862625746260808
 20
-8.423382834607057
 30
0.0
 10
7.869193885126858
 20
-8.2909622381132
 30
0.0
 10
7.874836086120391
 20
-8.17721319512624
 30
0.0
 10
7.88428753245479
 20
-8.063622679599852
 30
0.0
 10
7.887940257028541
 20
-7.94983006306135
 30
0.0
 10
7.888697060738486
 20
-7.926232834886731
 30
0.0
 10
7.87134160232242
 20
-7.902054387134714
 30
0.0
 10
7.862333344827485
 20
-7.878143830724361
 30
0.0
 10
7.841962138293613
 20
-7.889518391021308
 30
0.0
 10
7.815550262146391
 20
-7.89613942084601
 30
0.0
 10
7.802231663520375
 20
-7.913064018937474
 30
0.0
 10
7.732677962542842
 20
-8.001444654879833
 30
0.0
 10
7.667471009541132
 20
-8.093227754528318
 30
0.0
 10
7.598874206588081
 20
-8.182382394346835
 30
0.0
 10
7.395303181942015
 20
-8.446961572689032
 30
0.0
 10
7.170050304336958
 20
-8.683262662748296
 30
0.0
 10
6.86431364550439
 20
-8.838193011970715
 30
0.0
 10
6.602400794845519
 20
-8.970916616648688
 30
0.0
 10
6.358907227817983
 20
-9.143129612422298
 30
0.0
 10
6.067316491667295
 20
-9.208339152324141
 30
0.0
 10
5.96915159709383
 20
-9.23029219559799
 30
0.0
 10
5.864534090887383
 20
-9.224416646173317
 30
0.0
 10
5.762750871908931
 20
-9.227983657370208
 30
0.0
 10
5.748625589328311
 20
-9.228478446514751
 30
0.0
 10
5.720474211320038
 20
-9.207387414224486
 30
0.0
 10
5.721775971035009
 20
-9.200888075009212
 30
0.0
 10
5.726312206606647
 20
-9.178240148255401
 30
0.0
 10
5.736000440768572
 20
-9.152222151290944
 30
0.0
 10
5.752525421780029
 20
-9.137089228838805
 30
0.0
 10
5.862958563163539
 20
-9.035957882374431
 30
0.0
 10
5.978287135212932
 20
-8.940072562182069
 30
0.0
 10
6.086866680842755
 20
-8.837046339561539
 30
0.0
 10
6.186233861310206
 20
-8.74276148738429
 30
0.0
 10
6.279398691371524
 20
-8.641913369004946
 30
0.0
 10
6.374489070872515
 20
-8.543180001216266
 30
0.0
 10
6.387265293506251
 20
-8.529914434782489
 30
0.0
 10
6.402378147594946
 20
-8.512986683341927
 30
0.0
 10
6.404483151247771
 20
-8.496254152878969
 30
0.0
 10
6.43050458548099
 20
-8.28942311707197
 30
0.0
 10
6.594864864568308
 20
-8.155738027578915
 30
0.0
 10
6.676225850096178
 20
-7.97845831643119
 30
0.0
 10
6.68143575563704
 20
-7.967106402914346
 30
0.0
 10
6.691124276467045
 20
-7.956946598700849
 30
0.0
 10
6.693283747053556
 20
-7.945228466683274
 30
0.0
 10
6.698676260156276
 20
-7.915969686822361
 30
0.0
 10
6.700930617874658
 20
-7.886132554065094
 30
0.0
 10
6.704444308433367
 20
-7.856527335802562
 30
0.0
 10
6.675633880527471
 20
-7.855652854756499
 30
0.0
 10
6.643766137633494
 20
-7.846313494651794
 30
0.0
 10
6.618559127392914
 20
-7.855416783574279
 30
0.0
 10
6.525582064918808
 20
-7.888994505064375
 30
0.0
 10
6.437319832225171
 20
-7.938281925228416
 30
0.0
 10
6.342428973702276
 20
-7.963081582758099
 30
0.0
 10
6.26368756101648
 20
-7.98366076915171
 30
0.0
 10
6.17812688823354
 20
-7.978256215419125
 30
0.0
 10
6.095565623488128
 20
-7.984057517805265
 30
0.0
 10
6.060363644248532
 20
-7.986531176859999
 30
0.0
 10
6.007557092038243
 20
-7.974257625394203
 30
0.0
 10
5.992890866805724
 20
-7.992680064320211
 30
0.0
 10
5.926759122603812
 20
-8.075749026995101
 30
0.0
 10
5.839205820052269
 20
-8.064832992327739
 30
0.0
 10
5.75223359368273
 20
-8.064803465513199
 30
0.0
 10
5.65882652910059
 20
-8.064771645353883
 30
0.0
 10
5.565119036378986
 20
-8.069200667534307
 30
0.0
 10
5.472078046924808
 20
-8.06327552452798
 30
0.0
 10
5.305086728272499
 20
-8.052641284605164
 30
0.0
 10
5.135981949259253
 20
-8.04850466388906
 30
0.0
 10
4.972723765574806
 20
-8.016407726481374
 30
0.0
 10
4.881500538365294
 20
-7.998473053331432
 30
0.0
 10
4.800382360694408
 20
-7.929527224718337
 30
0.0
 10
4.714437409360938
 20
-7.884084453808251
 30
0.0
 10
4.693170078434087
 20
-7.872839467493501
 30
0.0
 10
4.67163256284933
 20
-7.857675871554394
 30
0.0
 10
4.64883944110914
 20
-7.854625866280028
 30
0.0
 10
4.593447286223282
 20
-7.847214062495166
 30
0.0
 10
4.536686434627565
 20
-7.849594267748519
 30
0.0
 10
4.481476313967416
 20
-7.841343529762272
 30
0.0
 10
4.334750707998384
 20
-7.819416429951666
 30
0.0
 10
4.274213721223999
 20
-7.937545331539568
 30
0.0
 10
4.192490243919047
 20
-8.018082728203101
 30
0.0
 10
4.119535512935032
 20
-8.089979231593109
 30
0.0
 10
4.054738423609428
 20
-8.170088632779905
 30
0.0
 10
3.984974451601033
 20
-8.24530546946476
 30
0.0
 10
3.9106078803623
 20
-8.325484531000383
 30
0.0
 10
3.831615203111419
 20
-8.401558505311135
 30
0.0
 10
3.760096392500145
 20
-8.484147872250862
 30
0.0
 10
3.660433728917446
 20
-8.59923708861609
 30
0.0
 10
3.524884451072163
 20
-8.667540350677857
 30
0.0
 10
3.386871547815935
 20
-8.68067204310786
 30
0.0
 10
3.283818210110907
 20
-8.690477238878833
 30
0.0
 10
3.168609250314615
 20
-8.626838066841376
 30
0.0
 10
3.067984725766514
 20
-8.57728146532928
 30
0.0
 10
3.034487006131801
 20
-8.560784002710205
 30
0.0
 10
3.029445930168625
 20
-8.486505430724163
 30
0.0
 10
3.011395704804853
 20
-8.43864189102424
 30
0.0
 10
3.016237707708797
 20
-8.4368559487469
 30
0.0
 10
3.021079710612715
 20
-8.435070006469585
 30
0.0
 10
3.025921704558249
 20
-8.433284350860351
 30
0.0
  0
ENDBLK
  5
44
330
41
100
AcDbEntity
  8
0
100
AcDbBlockEnd
  0
ENDSEC
  0
SECTION
  2
ENTITIES
  0
INSERT
  5
42
330
1F
100
AcDbEntity
  8
Layer 1
100
AcDbBlockReference
  2
block 2
 10
0.0
 20
0.0
 30
0.0
  0
ENDSEC
  0
SECTION
  2
OBJECTS
  0
DICTIONARY
  5
C
330
0
100
AcDbDictionary
281
     1
  3
ACAD_GROUP
350
D
  3
ACAD_LAYOUT
350
1A
  3
ACAD_MATERIAL
350
3B
  3
ACAD_MLEADERSTYLE
350
48
  3
ACAD_MLINESTYLE
350
17
  3
ACAD_PLOTSETTINGS
350
19
  3
ACAD_PLOTSTYLENAME
350
E
  3
ACAD_TABLESTYLE
350
47
  3
ACAD_VISUALSTYLE
350
2A
  0
SUN
  5
3F
330
29
100
AcDbSun
 90
        1
290
     0
 63
     7
421
 16777215
 40
1.0
291
     1
 91
  2455826
 92
 54000000
292
     0
 70
     2
 71
   256
280
     1
  0
DICTIONARY
  5
D
102
{ACAD_REACTORS
330
C
102
}
330
C
100
AcDbDictionary
281
     1
  0
DICTIONARY
  5
1A
102
{ACAD_REACTORS
330
C
102
}
330
C
100
AcDbDictionary
281
     1
  3
Layout1
350
1E
  3
Layout2
350
26
  3
Model
350
22
  0
DICTIONARY
  5
3B
102
{ACAD_REACTORS
330
C
102
}
330
C
100
AcDbDictionary
281
     1
  3
ByBlock
350
3D
  3
ByLayer
350
3C
  3
Global
350
3E
  0
DICTIONARY
  5
48
102
{ACAD_REACTORS
330
C
102
}
330
C
100
AcDbDictionary
281
     1
  0
DICTIONARY
  5
17
102
{ACAD_REACTORS
330
C
102
}
330
C
100
AcDbDictionary
281
     1
  3
Standard
350
18
  0
DICTIONARY
  5
19
102
{ACAD_REACTORS
330
C
102
}
330
C
100
AcDbDictionary
281
     1
  0
ACDBDICTIONARYWDFLT
  5
E
102
{ACAD_REACTORS
330
C
102
}
330
C
100
AcDbDictionary
281
     1
  3
Normal
350
F
100
AcDbDictionaryWithDefault
340
F
  0
DICTIONARY
  5
47
102
{ACAD_REACTORS
330
C
102
}
330
C
100
AcDbDictionary
281
     1
  0
DICTIONARY
  5
2A
102
{ACAD_REACTORS
330
C
102
}
330
C
100
AcDbDictionary
281
     1
  3
2dWireframe
350
2F
  3
3D Hidden
350
31
  3
3dWireframe
350
30
  3
Basic
350
32
  3
Brighten
350
36
  3
ColorChange
350
3A
  3
Conceptual
350
34
  3
Dim
350
35
  3
Facepattern
350
39
  3
Flat
350
2B
  3
FlatWithEdges
350
2C
  3
Gouraud
350
2D
  3
GouraudWithEdges
350
2E
  3
Linepattern
350
38
  3
Realistic
350
33
  3
Thicken
350
37
  0
LAYOUT
  5
1E
102
{ACAD_REACTORS
330
1A
102
}
330
1A
100
AcDbPlotSettings
  1

  2
none_device
  4

  6

 40
0.0
 41
0.0
 42
0.0
 43
0.0
 44
0.0
 45
0.0
 46
0.0
 47
0.0
 48
0.0
 49
0.0
140
0.0
141
0.0
142
1.0
143
1.0
 70
   688
 72
     0
 73
     0
 74
     5
  7

 75
    16
 76
     0
 77
     2
 78
   300
147
1.0
148
0.0
149
0.0
100
AcDbLayout
  1
Layout1
 70
     1
 71
     1
 10
0.0
 20
0.0
 11
12.0
 21
9.0
 12
0.0
 22
0.0
 32
0.0
 14
1.000000000000000E+20
 24
1.000000000000000E+20
 34
1.000000000000000E+20
 15
-1.000000000000000E+20
 25
-1.000000000000000E+20
 35
-1.000000000000000E+20
146
0.0
 13
0.0
 23
0.0
 33
0.0
 16
1.0
 26
0.0
 36
0.0
 17
0.0
 27
1.0
 37
0.0
 76
     0
330
1B
  0
LAYOUT
  5
26
102
{ACAD_REACTORS
330
1A
102
}
330
1A
100
AcDbPlotSettings
  1

  2
none_device
  4

  6

 40
0.0
 41
0.0
 42
0.0
 43
0.0
 44
0.0
 45
0.0
 46
0.0
 47
0.0
 48
0.0
 49
0.0
140
0.0
141
0.0
142
1.0
143
1.0
 70
   688
 72
     0
 73
     0
 74
     5
  7

 75
    16
 76
     0
 77
     2
 78
   300
147
1.0
148
0.0
149
0.0
100
AcDbLayout
  1
Layout2
 70
     1
 71
     2
 10
0.0
 20
0.0
 11
0.0
 21
0.0
 12
0.0
 22
0.0
 32
0.0
 14
0.0
 24
0.0
 34
0.0
 15
0.0
 25
0.0
 35
0.0
146
0.0
 13
0.0
 23
0.0
 33
0.0
 16
1.0
 26
0.0
 36
0.0
 17
0.0
 27
1.0
 37
0.0
 76
     0
330
23
  0
LAYOUT
  5
22
102
{ACAD_REACTORS
330
1A
102
}
330
1A
100
AcDbPlotSettings
  1

  2
none_device
  4

  6

 40
0.0
 41
0.0
 42
0.0
 43
0.0
 44
0.0
 45
0.0
 46
0.0
 47
0.0
 48
0.0
 49
0.0
140
0.0
141
0.0
142
1.0
143
1.0
 70
  1712
 72
     0
 73
     0
 74
     0
  7

 75
     0
 76
     0
 77
     2
 78
   300
147
1.0
148
0.0
149
0.0
100
AcDbLayout
  1
Model
 70
     1
 71
     0
 10
0.0
 20
0.0
 11
12.0
 21
9.0
 12
0.0
 22
0.0
 32
0.0
 14
1.000000000000000E+20
 24
1.000000000000000E+20
 34
1.000000000000000E+20
 15
-1.000000000000000E+20
 25
-1.000000000000000E+20
 35
-1.000000000000000E+20
146
0.0
 13
0.0
 23
0.0
 33
0.0
 16
1.0
 26
0.0
 36
0.0
 17
0.0
 27
1.0
 37
0.0
 76
     0
330
1F
331
29
  0
MATERIAL
  5
3D
102
{ACAD_REACTORS
330
3B
102
}
330
3B
100
AcDbMaterial
  1
ByBlock
 72
     1
 94
      127
  0
MATERIAL
  5
3C
102
{ACAD_REACTORS
330
3B
102
}
330
3B
100
AcDbMaterial
  1
ByLayer
 72
     1
 94
      127
  0
MATERIAL
  5
3E
102
{ACAD_REACTORS
330
3B
102
}
330
3B
100
AcDbMaterial
  1
Global
 72
     1
 94
      127
  0
MLINESTYLE
  5
18
102
{ACAD_REACTORS
330
17
102
}
330
17
100
AcDbMlineStyle
  2
Standard
 70
     0
  3

 62
   256
 51
90.0
 52
90.0
 71
     2
 49
0.5
 62
   256
  6
BYLAYER
 49
-0.5
 62
   256
  6
BYLAYER
  0
ACDBPLACEHOLDER
  5
F
102
{ACAD_REACTORS
330
E
102
}
330
E
  0
VISUALSTYLE
  5
2F
102
{ACAD_REACTORS
330
2A
102
}
330
2A
100
AcDbVisualStyle
  2
2dWireframe
 70
     4
177
     2
291
     0
 71
     0
176
     1
 72
     2
176
     1
 73
     0
176
     1
 90
        0
176
     1
 40
-0.6
176
     1
 41
-30.0
176
     1
 62
     5
 63
     7
421
 16777215
176
     1
 74
     1
176
     1
 91
        4
176
     1
 64
     7
176
     1
 65
   257
176
     1
 75
     1
176
     1
175
     1
176
     1
 42
1.0
176
     1
 92
        0
176
     1
 66
   257
176
     1
 43
1.0
176
     1
 76
     1
176
     1
 77
     6
176
     1
 78
     2
176
     1
 67
     7
176
     1
 79
     5
176
     1
170
     0
176
     1
171
     0
176
     1
290
     0
176
     1
 93
        1
176
     1
 44
0.0
176
     1
173
     0
176
     1
  0
VISUALSTYLE
  5
31
102
{ACAD_REACTORS
330
2A
102
}
330
2A
100
AcDbVisualStyle
  2
3D Hidden
 70
     6
177
     2
291
     0
 71
     1
176
     1
 72
     2
176
     1
 73
     2
176
     1
 90
        0
176
     1
 40
-0.6
176
     1
 41
-30.0
176
     1
 62
     5
 63
     7
421
 16777215
176
     1
 74
     2
176
     1
 91
        2
176
     1
 64
     7
176
     1
 65
   257
176
     1
 75
     2
176
     1
175
     1
176
     1
 42
40.0
176
     1
 92
        0
176
     1
 66
   257
176
     1
 43
1.0
176
     1
 76
     1
176
     1
 77
     6
176
     1
 78
     2
176
     1
 67
     7
176
     1
 79
     3
176
     1
170
     0
176
     1
171
     0
176
     1
290
     0
176
     1
 93
        1
176
     1
 44
0.0
176
     1
173
     0
176
     1
  0
VISUALSTYLE
  5
30
102
{ACAD_REACTORS
330
2A
102
}
330
2A
100
AcDbVisualStyle
  2
3dWireframe
 70
     5
177
     2
291
     0
 71
     0
176
     1
 72
     2
176
     1
 73
     0
176
     1
 90
        0
176
     1
 40
-0.6
176
     1
 41
-30.0
176
     1
 62
     5
 63
     7
421
 16777215
176
     1
 74
     1
176
     1
 91
        4
176
     1
 64
     7
176
     1
 65
   257
176
     1
 75
     1
176
     1
175
     1
176
     1
 42
1.0
176
     1
 92
        0
176
     1
 66
   257
176
     1
 43
1.0
176
     1
 76
     1
176
     1
 77
     6
176
     1
 78
     2
176
     1
 67
     7
176
     1
 79
     5
176
     1
170
     0
176
     1
171
     0
176
     1
290
     0
176
     1
 93
        1
176
     1
 44
0.0
176
     1
173
     0
176
     1
  0
VISUALSTYLE
  5
32
102
{ACAD_REACTORS
330
2A
102
}
330
2A
100
AcDbVisualStyle
  2
Basic
 70
     7
177
     2
291
     1
 71
     1
176
     1
 72
     0
176
     1
 73
     1
176
     1
 90
        0
176
     1
 40
-0.6
176
     1
 41
-30.0
176
     1
 62
     5
 63
     7
421
 16777215
176
     1
 74
     0
176
     1
 91
        4
176
     1
 64
     7
176
     1
 65
   257
176
     1
 75
     1
176
     1
175
     1
176
     1
 42
1.0
176
     1
 92
        8
176
     1
 66
     7
176
     1
 43
1.0
176
     1
 76
     1
176
     1
 77
     6
176
     1
 78
     2
176
     1
 67
     7
176
     1
 79
     5
176
     1
170
     0
176
     1
171
     0
176
     1
290
     0
176
     1
 93
        1
176
     1
 44
0.0
176
     1
173
     0
176
     1
  0
VISUALSTYLE
  5
36
102
{ACAD_REACTORS
330
2A
102
}
330
2A
100
AcDbVisualStyle
  2
Brighten
 70
    12
177
     2
291
     1
 71
     2
176
     1
 72
     2
176
     1
 73
     0
176
     1
 90
        0
176
     1
 40
-0.6
176
     1
 41
-30.0
176
     1
 62
     5
 63
     7
421
 16777215
176
     1
 74
     1
176
     1
 91
        4
176
     1
 64
     7
176
     1
 65
   257
176
     1
 75
     1
176
     1
175
     1
176
     1
 42
1.0
176
     1
 92
        8
176
     1
 66
     7
176
     1
 43
1.0
176
     1
 76
     1
176
     1
 77
     6
176
     1
 78
     2
176
     1
 67
     7
176
     1
 79
     5
176
     1
170
     0
176
     1
171
     0
176
     1
290
     0
176
     1
 93
        1
176
     1
 44
50.0
176
     1
173
     0
176
     1
  0
VISUALSTYLE
  5
3A
102
{ACAD_REACTORS
330
2A
102
}
330
2A
100
AcDbVisualStyle
  2
ColorChange
 70
    16
177
     2
291
     1
 71
     2
176
     1
 72
     2
176
     1
 73
     3
176
     1
 90
        0
176
     1
 40
-0.6
176
     1
 41
-30.0
176
     1
 62
     5
 63
     8
421
  8421504
176
     1
 74
     1
176
     1
 91
        4
176
     1
 64
     7
176
     1
 65
   257
176
     1
 75
     1
176
     1
175
     1
176
     1
 42
1.0
176
     1
 92
        8
176
     1
 66
     8
424
  8421504
176
     1
 43
1.0
176
     1
 76
     1
176
     1
 77
     6
176
     1
 78
     2
176
     1
 67
     7
176
     1
 79
     5
176
     1
170
     0
176
     1
171
     0
176
     1
290
     0
176
     1
 93
        1
176
     1
 44
0.0
176
     1
173
     0
176
     1
  0
VISUALSTYLE
  5
34
102
{ACAD_REACTORS
330
2A
102
}
330
2A
100
AcDbVisualStyle
  2
Conceptual
 70
     9
177
     2
291
     0
 71
     3
176
     1
 72
     2
176
     1
 73
     0
176
     1
 90
        0
176
     1
 40
-0.6
176
     1
 41
-30.0
176
     1
 62
     5
 63
     7
421
 16777215
176
     1
 74
     2
176
     1
 91
        2
176
     1
 64
     7
176
     1
 65
   257
176
     1
 75
     1
176
     1
175
     1
176
     1
 42
40.0
176
     1
 92
        8
176
     1
 66
     7
176
     1
 43
1.0
176
     1
 76
     1
176
     1
 77
     6
176
     1
 78
     2
176
     1
 67
     7
176
     1
 79
     3
176
     1
170
     0
176
     1
171
     0
176
     1
290
     0
176
     1
 93
        1
176
     1
 44
0.0
176
     1
173
     0
176
     1
  0
VISUALSTYLE
  5
35
102
{ACAD_REACTORS
330
2A
102
}
330
2A
100
AcDbVisualStyle
  2
Dim
 70
    11
177
     2
291
     1
 71
     2
176
     1
 72
     2
176
     1
 73
     0
176
     1
 90
        0
176
     1
 40
-0.6
176
     1
 41
-30.0
176
     1
 62
     5
 63
     7
421
 16777215
176
     1
 74
     1
176
     1
 91
        4
176
     1
 64
     7
176
     1
 65
   257
176
     1
 75
     1
176
     1
175
     1
176
     1
 42
1.0
176
     1
 92
        8
176
     1
 66
     7
176
     1
 43
1.0
176
     1
 76
     1
176
     1
 77
     6
176
     1
 78
     2
176
     1
 67
     7
176
     1
 79
     5
176
     1
170
     0
176
     1
171
     0
176
     1
290
     0
176
     1
 93
        1
176
     1
 44
-50.0
176
     1
173
     0
176
     1
  0
VISUALSTYLE
  5
39
102
{ACAD_REACTORS
330
2A
102
}
330
2A
100
AcDbVisualStyle
  2
Facepattern
 70
    15
177
     2
291
     1
 71
     2
176
     1
 72
     2
176
     1
 73
     0
176
     1
 90
        0
176
     1
 40
-0.6
176
     1
 41
-30.0
176
     1
 62
     5
 63
     7
421
 16777215
176
     1
 74
     1
176
     1
 91
        4
176
     1
 64
     7
176
     1
 65
   257
176
     1
 75
     1
176
     1
175
     1
176
     1
 42
1.0
176
     1
 92
        8
176
     1
 66
     7
176
     1
 43
1.0
176
     1
 76
     1
176
     1
 77
     6
176
     1
 78
     2
176
     1
 67
     7
176
     1
 79
     5
176
     1
170
     0
176
     1
171
     0
176
     1
290
     0
176
     1
 93
        1
176
     1
 44
0.0
176
     1
173
     0
176
     1
  0
VISUALSTYLE
  5
2B
102
{ACAD_REACTORS
330
2A
102
}
330
2A
100
AcDbVisualStyle
  2
Flat
 70
     0
177
     2
291
     1
 71
     2
176
     1
 72
     1
176
     1
 73
     1
176
     1
 90
        2
176
     1
 40
-0.6
176
     1
 41
30.0
176
     1
 62
     5
 63
     7
421
 16777215
176
     1
 74
     0
176
     1
 91
        4
176
     1
 64
     7
176
     1
 65
   257
176
     1
 75
     1
176
     1
175
     1
176
     1
 42
1.0
176
     1
 92
        8
176
     1
 66
     7
176
     1
 43
1.0
176
     1
 76
     1
176
     1
 77
     6
176
     1
 78
     2
176
     1
 67
     7
176
     1
 79
     5
176
     1
170
     0
176
     1
171
     0
176
     1
290
     0
176
     1
 93
       13
176
     1
 44
0.0
176
     1
173
     0
176
     1
  0
VISUALSTYLE
  5
2C
102
{ACAD_REACTORS
330
2A
102
}
330
2A
100
AcDbVisualStyle
  2
FlatWithEdges
 70
     1
177
     2
291
     1
 71
     2
176
     1
 72
     1
176
     1
 73
     1
176
     1
 90
        2
176
     1
 40
-0.6
176
     1
 41
30.0
176
     1
 62
     5
 63
     7
421
 16777215
176
     1
 74
     1
176
     1
 91
        4
176
     1
 64
     7
176
     1
 65
   257
176
     1
 75
     1
176
     1
175
     1
176
     1
 42
1.0
176
     1
 92
        0
176
     1
 66
   257
176
     1
 43
1.0
176
     1
 76
     1
176
     1
 77
     6
176
     1
 78
     2
176
     1
 67
     7
176
     1
 79
     5
176
     1
170
     0
176
     1
171
     0
176
     1
290
     0
176
     1
 93
       13
176
     1
 44
0.0
176
     1
173
     0
176
     1
  0
VISUALSTYLE
  5
2D
102
{ACAD_REACTORS
330
2A
102
}
330
2A
100
AcDbVisualStyle
  2
Gouraud
 70
     2
177
     2
291
     1
 71
     2
176
     1
 72
     2
176
     1
 73
     1
176
     1
 90
        2
176
     1
 40
-0.6
176
     1
 41
30.0
176
     1
 62
     5
 63
     7
421
 16777215
176
     1
 74
     0
176
     1
 91
        4
176
     1
 64
     7
176
     1
 65
   257
176
     1
 75
     1
176
     1
175
     1
176
     1
 42
1.0
176
     1
 92
        0
176
     1
 66
     7
176
     1
 43
1.0
176
     1
 76
     1
176
     1
 77
     6
176
     1
 78
     2
176
     1
 67
     7
176
     1
 79
     5
176
     1
170
     0
176
     1
171
     0
176
     1
290
     0
176
     1
 93
       13
176
     1
 44
0.0
176
     1
173
     0
176
     1
  0
VISUALSTYLE
  5
2E
102
{ACAD_REACTORS
330
2A
102
}
330
2A
100
AcDbVisualStyle
  2
GouraudWithEdges
 70
     3
177
     2
291
     1
 71
     2
176
     1
 72
     2
176
     1
 73
     1
176
     1
 90
        2
176
     1
 40
-0.6
176
     1
 41
30.0
176
     1
 62
     5
 63
     7
421
 16777215
176
     1
 74
     1
176
     1
 91
        4
176
     1
 64
     7
176
     1
 65
   257
176
     1
 75
     1
176
     1
175
     1
176
     1
 42
1.0
176
     1
 92
        0
176
     1
 66
   257
176
     1
 43
1.0
176
     1
 76
     1
176
     1
 77
     6
176
     1
 78
     2
176
     1
 67
     7
176
     1
 79
     5
176
     1
170
     0
176
     1
171
     0
176
     1
290
     0
176
     1
 93
       13
176
     1
 44
0.0
176
     1
173
     0
176
     1
  0
VISUALSTYLE
  5
38
102
{ACAD_REACTORS
330
2A
102
}
330
2A
100
AcDbVisualStyle
  2
Linepattern
 70
    14
177
     2
291
     1
 71
     2
176
     1
 72
     2
176
     1
 73
     0
176
     1
 90
        0
176
     1
 40
-0.6
176
     1
 41
-30.0
176
     1
 62
     5
 63
     7
421
 16777215
176
     1
 74
     1
176
     1
 91
        4
176
     1
 64
     7
176
     1
 65
   257
176
     1
 75
     7
176
     1
175
     7
176
     1
 42
1.0
176
     1
 92
        8
176
     1
 66
     7
176
     1
 43
1.0
176
     1
 76
     1
176
     1
 77
     6
176
     1
 78
     2
176
     1
 67
     7
176
     1
 79
     5
176
     1
170
     0
176
     1
171
     0
176
     1
290
     0
176
     1
 93
        1
176
     1
 44
0.0
176
     1
173
     0
176
     1
  0
VISUALSTYLE
  5
33
102
{ACAD_REACTORS
330
2A
102
}
330
2A
100
AcDbVisualStyle
  2
Realistic
 70
     8
177
     2
291
     0
 71
     2
176
     1
 72
     2
176
     1
 73
     0
176
     1
 90
        0
176
     1
 40
-0.6
176
     1
 41
-30.0
176
     1
 62
     5
 63
     7
421
 16777215
176
     1
 74
     1
176
     1
 91
        0
176
     1
 64
     7
176
     1
 65
   257
176
     1
 75
     1
176
     1
175
     1
176
     1
 42
1.0
176
     1
 92
        8
176
     1
 66
     8
424
  7895160
176
     1
 43
1.0
176
     1
 76
     1
176
     1
 77
     6
176
     1
 78
     2
176
     1
 67
     7
176
     1
 79
     5
176
     1
170
     0
176
     1
171
     0
176
     1
290
     0
176
     1
 93
       13
176
     1
 44
0.0
176
     1
173
     0
176
     1
  0
VISUALSTYLE
  5
37
102
{ACAD_REACTORS
330
2A
102
}
330
2A
100
AcDbVisualStyle
  2
Thicken
 70
    13
177
     2
291
     1
 71
     2
176
     1
 72
     2
176
     1
 73
     0
176
     1
 90
        0
176
     1
 40
-0.6
176
     1
 41
-30.0
176
     1
 62
     5
 63
     7
421
 16777215
176
     1
 74
     1
176
     1
 91
        4
176
     1
 64
     7
176
     1
 65
   257
176
     1
 75
     1
176
     1
175
     1
176
     1
 42
1.0
176
     1
 92
       12
176
     1
 66
     7
176
     1
 43
1.0
176
     1
 76
     1
176
     1
 77
     6
176
     1
 78
     2
176
     1
 67
     7
176
     1
 79
     5
176
     1
170
     0
176
     1
171
     0
176
     1
290
     0
176
     1
 93
        1
176
     1
 44
0.0
176
     1
173
     0
176
     1
  0
ENDSEC
  0
EOF
